<ttFont>
          <CharString index="0">
            2 -42 7 -43 13 -36 rrcurveto
            247 hlineto
            -31 92 2 70 98 vvcurveto
            479 vlineto
            273 -136 146 -282 -163 -110 -28 -52 -105 vhcurveto
            -199 vlineto
            52 117 88 39 116 hhcurveto
            171 62 -77 -146 hvcurveto
            -62 -144 vlineto
            -328 -175 -133 -244 hvcurveto
            return
          </CharString>
          <CharString index="1">
            674 -22 -107 callgsubr
            return
          </CharString>
          <CharString index="2">
            85 575 rmoveto
            -379 203 -219 328 103 107 20 53 103 vhcurveto
            -56 callgsubr
            -129 49 274 -32 hvcurveto
            636 -75 callgsubr
            -261 -240 -177 -405 vhcurveto
            250 76 rmoveto
            207 6 95 -13 callsubr
            152 68 -126 -193 -28 hvcurveto
            return
          </CharString>
          <CharString index="3">
            234 hintmask 11101010
            -105 callsubr
            hintmask 00010100
            return
          </CharString>
          <CharString index="4">
            -46 callsubr
            hintmask 01110101
            -2 callsubr
            hintmask 10110101
            -84 callsubr
            hintmask 01110101
            -107 callsubr
            hintmask 10110101
            -99 callgsubr
            hintmask 00001010
            return
          </CharString>
          <CharString index="5">
            rmoveto
            -101 callsubr
            -471 hmoveto
            -101 callsubr
            endchar
          </CharString>
          <CharString index="6">
            99 63 61 92 91 -63 61 -99 -96 -63 -61 -91 -92 63 -61 96 hvcurveto
            return
          </CharString>
          <CharString index="7">
            206 528 rmoveto
            -348 209 -202 308 308 209 202 348 vhcurveto
            1043 -247 -1068 vlineto
            -221 -102 -97 -168 -169 -100 97 221 vhcurveto
            1068 -248 vlineto
            return
          </CharString>
          <CharString index="8">
            249 hintmask 11010100
            -104 callgsubr
            return
          </CharString>
          <CharString index="9">
            -92 callgsubr
            -458 -45 callsubr
            rlineto
            -331 hlineto
            -30 -986 rmoveto
            return
          </CharString>
          <CharString index="10">
            rmoveto
            266 37 113 224 219 vvcurveto
            195 -90 87 -129 -119 -78 -76 -107 -109 76 -73 127 vhcurveto
            -111 -30 -94 -136 -41 vhcurveto
            return
          </CharString>
          <CharString index="11">
            rmoveto
            -111 -56 -62 -64 -84 59 -46 105 hvcurveto
            -55 -7 -24 -119 -14 vhcurveto
            -116 vlineto
            226 86 129 151 115 -74 70 -109 hvcurveto
            endchar
          </CharString>
          <CharString index="12">
            rmoveto
            -319 160 -150 221 221 159 150 319 319 -29 callsubr
            -160 -149 -319 vhcurveto
            214 -2 rmoveto
            209 70 74 97 97 67 -74 -209 -210 -67 -73 -97 -97 -70 73 210 vhcurveto
            return
          </CharString>
          <CharString index="13">
            rmoveto
            171 121 113 163 -54 callsubr
            -163 122 -113 170 hvcurveto
            142 vmoveto
            -57 callsubr
            endchar
          </CharString>
          <CharString index="14">
            247 hintmask 11010100
            -97 callgsubr
            return
          </CharString>
          <CharString index="15">
            hintmask 00000000
            hintmask 11010100
            -98 callsubr
            hintmask 11100100
            -71 callgsubr
            hintmask 00000000
            return
          </CharString>
          <CharString index="16">
            -16 12 callsubr
            497 188 -185 198 957 -20 hstemhm
            141 243 409 -46 callsubr
            hintmask 11011100
            360 59 rmoveto
            -47 33 85 -35 63 hhcurveto
            124 82 57 86 61 hvcurveto
            hintmask 10111100
            -88 61 -52 99 139 64 106 92 9 vhcurveto
            -145 1 rlineto
            956 -242 -849 vlineto
            hintmask 11011100
            -82 -57 -78 -39 -89 hhcurveto
            -130 -55 84 172 hvcurveto
            714 -243 -1655 242 vlineto
            endchar
          </CharString>
          <CharString index="17">
            145 41 rmoveto
            -43 88 110 -21 100 hhcurveto
            254 151 132 192 188 -150 89 -125 74 hvcurveto
            -119 72 -80 43 86 vvcurveto
            68 55 56 122 69 97 -26 -30 51 vhcurveto
            188 vlineto
            36 -63 -108 12 -67 hhcurveto
            -254 -138 -130 -181 -184 122 -88 128 -78 hvcurveto
            138 -84 92 -32 -90 vvcurveto
            -80 -67 -47 -117 -78 -113 24 60 -98 vhcurveto
            return
          </CharString>
          <CharString index="18">
            rmoveto
            -51 callsubr
            -96 -62 -61 -90 -90 62 -62 96 hvcurveto
            -120 return
          </CharString>
          <CharString index="19">
            -65 callsubr
            -80 callgsubr
            69 20 48 29 54 hhcurveto
            return
          </CharString>
          <CharString index="20">
            -84 callgsubr
            293 -134 141 -233 -157 -107 -60 -89 -69 vhcurveto
            return
          </CharString>
          <CharString index="21">
            -97 callsubr
            hintmask 10100000
            560 -151 -97 callsubr
            endchar
          </CharString>
          <CharString index="22">
            -91 callgsubr
            hintmask 00000000
            return
          </CharString>
          <CharString index="23">
            -177 137 -154 207 134 101 56 88 70 vhcurveto
            return
          </CharString>
          <CharString index="24">
            -71 callsubr
            334 -76 callsubr
          </CharString>
          <CharString index="25">
            156 vstem
            228 823 rmoveto
            -498 359 -364 505 505 359 364 498 498 -359 364 -505 -505 -359 -364 -498 vhcurveto
            155 hmoveto
            404 288 305 421 420 288 -305 -404 -405 -288 -304 -420 -421 -288 304 405 vhcurveto
            return
          </CharString>
          <CharString index="26">
            171 413 rmoveto
            -294 121 -142 236 150 96 57 86 62 vhcurveto
            return
          </CharString>
          <CharString index="27">
            301 -87 callgsubr
          </CharString>
          <CharString index="28">
            -8 callsubr
            275 379 rlineto
            -192 hlineto
            -190 -197 -190 197 rlineto
            -192 hlineto
            endchar
          </CharString>
          <CharString index="29">
            rmoveto
            -75 -32 -37 -71 -6 vhcurveto
            -178 vlineto
            221 125 133 200 hvcurveto
            1322 -243 vlineto
            return
          </CharString>
          <CharString index="30">
            -87 60 -62 95 vhcurveto
            -504 hmoveto
            98 62 61 88 hvcurveto
            return
          </CharString>
          <CharString index="31">
            420 -87 callgsubr
          </CharString>
          <CharString index="32">
            15 callsubr
            -95 callgsubr
            hintmask 00101000
            return
          </CharString>
          <CharString index="33">
            -82 -57 -80 -39 -88 hhcurveto
            -130 -54 84 172 hvcurveto
            714 -242 vlineto
            return
          </CharString>
          <CharString index="34">
            792 -493 -95 callsubr
            endchar
          </CharString>
          <CharString index="35">
            -86 callgsubr
            -69 -20 -48 -29 -54 hhcurveto
            return
          </CharString>
          <CharString index="36">
            rmoveto
            215 hlineto
            return
          </CharString>
          <CharString index="37">
            rmoveto
            597 205 -320 hlineto
            60 67 rlineto
            196 220 52 131 112 vvcurveto
            180 -136 130 -212 -89 -74 -23 -49 -74 vhcurveto
            -238 vlineto
            72 67 78 33 73 hhcurveto
            82 58 -46 -87 -79 -46 -92 -166 -202 hvcurveto
            -146 -176 rlineto
            return
          </CharString>
          <CharString index="38">
            264 -80 callsubr
          </CharString>
          <CharString index="39">
            -71 callsubr
            -266 -76 callsubr
          </CharString>
          <CharString index="40">
            50 21 -21 392 193 724 262 0 -20 return
          </CharString>
          <CharString index="41">
            197 hmoveto
            245 -45 callsubr
            -245 hlineto
            return
          </CharString>
          <CharString index="42">
            -114 -43 113 -136 hhcurveto
            return
          </CharString>
          <CharString index="43">
            15 callgsubr
            -69 callsubr
          </CharString>
          <CharString index="44">
            hstem
            -34 callsubr
            428 2 callsubr
            834 hlineto
            91 59 86 45 103 hhcurveto
            121 59 -25 callsubr
            -122 141 -234 -149 -99 -54 -82 -66 vhcurveto
            return
          </CharString>
          <CharString index="45">
            -28 callgsubr
            hintmask 00011000
            -53 callgsubr
            hintmask 00101000
            -77 callsubr
            hintmask 00011000
            -53 callsubr
            hintmask 00101000
            -30 callgsubr
          </CharString>
          <CharString index="46">
            rmoveto
            340 137 159 265 hvcurveto
            1169 -245 -1194 vlineto
            -130 -89 -76 -143 -3 vhcurveto
            return
          </CharString>
          <CharString index="47">
            -89 callsubr
            -1609 -78 callsubr
            endchar
          </CharString>
          <CharString index="48">
            126 18 callgsubr
            1205 203 return
          </CharString>
          <CharString index="49">
            203 vlineto
            -68 -76 -85 -30 -95 hhcurveto
            -194 -105 133 277 265 96 124 187 92 92 -22 -77 79 hvcurveto
            1 234 rlineto
            38 -78 -89 20 -107 hhcurveto
            -332 -192 -210 -383 hvcurveto
            return
          </CharString>
          <CharString index="50">
            -63 -50 44 90 90 50 43 63 65 49 -43 -90 -90 -50 -44 -64 hvcurveto
            return
          </CharString>
          <CharString index="51">
            -24 callsubr
            323 163 319 187 return
          </CharString>
          <CharString index="52">
            -66 callsubr
            hintmask 00000000
            return
          </CharString>
          <CharString index="53">
            163 -121 113 -171 -170 -122 -113 -163 return
          </CharString>
          <CharString index="54">
            91 -62 60 -98 -93 -62 -60 -91 vhcurveto
            return
          </CharString>
          <CharString index="55">
            329 240 251 558 return
          </CharString>
          <CharString index="56">
            -41 callsubr
            61 -98 return
          </CharString>
          <CharString index="57">
            -330 -239 -250 -556 return
          </CharString>
          <CharString index="58">
            -68 0 -48 callgsubr
            return
          </CharString>
          <CharString index="59">
            -38 callsubr
            411 hlineto
            105 116 351 -527 rlineto
            271 hlineto
            -469 694 402 441 rlineto
            -282 hlineto
            -378 -454 rlineto
            1030 -242 vlineto
            return
          </CharString>
          <CharString index="60">
            rmoveto
            267 hlineto
            -380 480 380 480 rlineto
            -267 hlineto
            -384 -480 rlineto
            return
          </CharString>
          <CharString index="61">
            242 hintmask 00000000
            return
          </CharString>
          <CharString index="62">
            1571 return
          </CharString>
          <CharString index="63">
            -49 callsubr
            161 17 callgsubr
            return
          </CharString>
          <CharString index="64">
            -196 -80 callsubr
          </CharString>
          <CharString index="65">
            292 210 212 382 return
          </CharString>
          <CharString index="66">
            98 63 62 90 90 -63 return
          </CharString>
          <CharString index="67">
            188 805 187 return
          </CharString>
          <CharString index="68">
            -22 184 -141 -21 728 187 -158 183 567 187 hstemhm
            147 214 331 215 412 214 331 216 return
          </CharString>
          <CharString index="69">
            171 hmoveto
            242 return
          </CharString>
          <CharString index="70">
            rmoveto
            221 159 149 319 320 -29 callsubr
            -159 -149 -320 -319 159 -149 221 hvcurveto
            return
          </CharString>
          <CharString index="71">
            -63 callgsubr
            181 -21 hstemhm
            return
          </CharString>
          <CharString index="72">
            -32 callgsubr
            181 -21 hstemhm
            206 248 return
          </CharString>
          <CharString index="73">
            171 242 return
          </CharString>
          <CharString index="74">
            -443 -133 -89 0 -6 -149 return
          </CharString>
          <CharString index="75">
            -21 -39 callgsubr
            -20 return
          </CharString>
          <CharString index="76">
            -202 rmoveto
            203 hlineto
            839 1956 rlineto
            -203 hlineto
            return
          </CharString>
          <CharString index="77">
            5 -11 -18 2 -25 hhcurveto
            -128 -110 -57 -96 -73 hvcurveto
            return
          </CharString>
          <CharString index="78">
            -159 149 -221 -221 return
          </CharString>
          <CharString index="79">
            300 -279 -21 hstemhm
            return
          </CharString>
          <CharString index="80">
            840 661 -36 callgsubr
            267 hlineto
            return
          </CharString>
          <CharString index="81">
            -227 32 callgsubr
            1369 -20 -2 callgsubr
            726 202 -481 return
          </CharString>
          <CharString index="82">
            -65 callgsubr
            293 return
          </CharString>
          <CharString index="83">
            -23 188 return
          </CharString>
          <CharString index="84">
            202 -166 -21 98 18 callsubr
            return
          </CharString>
          <CharString index="85">
            87 hmoveto
            987 202 -627 hlineto
            651 1369 rlineto
            -935 -202 581 hlineto
            return
          </CharString>
          <CharString index="86">
            818 vlineto
            99 116 160 8 91 -45 rrcurveto
            return
          </CharString>
          <CharString index="87">
            -4 callsubr
            205 return
          </CharString>
          <CharString index="88">
            245 6 callgsubr
            return
          </CharString>
          <CharString index="89">
            -38 callgsubr
            155 -21 5 callgsubr
            return
          </CharString>
          <CharString index="90">
            -43 callgsubr
            188 420 -37 callgsubr
            return
          </CharString>
          <CharString index="91">
            -107 -56 callsubr
            146 19 callgsubr
            85 250 return
          </CharString>
          <CharString index="92">
            -22 callgsubr
            hintmask 00110000
            return
          </CharString>
          <CharString index="93">
            12 callsubr
            497 -40 callsubr
            return
          </CharString>
          <CharString index="94">
            112 142 hhcurveto
            return
          </CharString>
          <CharString index="95">
            -59 callsubr
            hstem
            23 callgsubr
            641 249 vstem
            return
          </CharString>
          <CharString index="96">
            214 hmoveto
            return
          </CharString>
          <CharString index="97">
            -180 -520 203 1452 -20 return
          </CharString>
          <CharString index="98">
            202 -89 18 callsubr
            return
          </CharString>
          <CharString index="99">
            rmoveto
            214 hlineto
            return
          </CharString>
          <CharString index="100">
            -42 callgsubr
            hstem
            94 247 508 248 vstem
            return
          </CharString>
          <CharString index="101">
            -14 127 rlineto
            -213 hlineto
            return
          </CharString>
          <CharString index="102">
            -21 970 187 return
          </CharString>
          <CharString index="103">
            646 214 hstem
            return
          </CharString>
          <CharString index="104">
            15 callgsubr
            -43 callsubr
          </CharString>
          <CharString index="105">
            85 308 rmoveto
            return
          </CharString>
          <CharString index="106">
            762 hstemhm
            383 213 347 213 hintmask 11000000
            217 return
          </CharString>
          <CharString index="107">
            195 680 195 hstemhm
            535 228 -182 240 return
          </CharString>
          <CharString index="108">
            1711 return
          </CharString>
          <CharString index="109">
            242 vstem
            -38 callsubr
            return
          </CharString>
          <CharString index="110">
            179 227 178 return
          </CharString>
          <CharString index="111">
            hstem
            169 386 vstem
            return
          </CharString>
          <CharString index="112">
            -1121 1 callsubr
            return
          </CharString>
          <CharString index="113">
            200 -27 callgsubr
            567 249 hintmask 00000000
            return
          </CharString>
          <CharString index="114">
            -1121 1341 379 hstem
            -332 764 vstem
            return
          </CharString>
          <CharString index="115">
            207 hstem
            120 246 573 247 vstem
            return
          </CharString>
          <CharString index="116">
            -179 -201 178 1740 178 hstemhm
            return
          </CharString>
          <CharString index="117">
            hintmask 00000000
            hintmask 01100000
            return
          </CharString>
          <CharString index="118">
            hhcurveto
            260 232 188 418 379 return
          </CharString>
          <CharString index="119">
            -499 -21 return
          </CharString>
          <CharString index="120">
            190 hstem
            -303 706 vstem
            -303 return
          </CharString>
          <CharString index="121">
            rmoveto
            706 190 -706 hlineto
            endchar
          </CharString>
          <CharString index="122">
            hintmask 00000000
            hintmask 11010000
            return
          </CharString>
          <CharString index="123">
            247 -155 246 return
          </CharString>
          <CharString index="124">
            241 hintmask 00000000
            return
          </CharString>
          <CharString index="125">
            202 hstemhm
            return
          </CharString>
          <CharString index="126">
            rmoveto
            -41 callsubr
            62 -98 return
          </CharString>
          <CharString index="127">
            47 25 callsubr
            return
          </CharString>
          <CharString index="128">
            -274 -23 186 814 180 return
          </CharString>
          <CharString index="129">
            hintmask 0000000000000000
            return
          </CharString>
          <CharString index="130">
            242 470 253 hintmask 00000000
            return
          </CharString>
          <CharString index="131">
            138 -7 201 -173 -21 return
          </CharString>
          <CharString index="132">
            -18 callgsubr
            -22 -20 return
          </CharString>
          <CharString index="133">
            hintmask 00000000
            hintmask 01110000
            return
          </CharString>
          <CharString index="134">
            -7 rlineto
            214 vlineto
            return
          </CharString>
          <CharString index="135">
            136 169 105 return
          </CharString>
          <CharString index="136">
            1141 -20 return
          </CharString>
          <CharString index="137">
            hstemhm
            23 callgsubr
            return
          </CharString>
          <CharString index="138">
            hlineto
            -275 return
          </CharString>
          <CharString index="139">
            379 hstemhm
            return
          </CharString>
        <CharString name=".notdef">
          913 21 -21 hstem
          260 1614 vstem
          260 hmoveto
          1614 1614 -1614 hlineto
          300 -1173 rmoveto
          391 363 -392 385 130 132 379 -401 374 400 136 -132 -397 -381 397 -391 -129 -129 -384 403 -370 -403 rlineto
          endchar
        </CharString>
        <CharString name=".null">
          endchar
        </CharString>
        <CharString name="A">
          -67 callsubr
          -4 callgsubr
          hintmask 00000000
          hintmask 11011000
          -98 callsubr
          hintmask 11101000
          -71 callgsubr
          endchar
        </CharString>
        <CharString name="AE">
          390 32 callgsubr
          190 193 157 197 434 198 hstem
          730 247 vstem
          -51 hmoveto
          258 hlineto
          127 392 rlineto
          396 -392 826 202 -579 540 394 197 -394 434 532 198 -1023 hlineto
          -90 -986 rmoveto
          256 788 rlineto
          78 -788 hlineto
          endchar
        </CharString>
        <CharString name="Aacute">
          -46 callgsubr
          -726 479 -92 callsubr
          -310 1126 -71 callsubr
          hintmask 00001010
          -69 callsubr
        </CharString>
        <CharString name="Acircumflex">
          -46 callgsubr
          -1001 764 -92 callsubr
          -382 1126 -76 callgsubr
          hintmask 00001010
          -81 callgsubr
        </CharString>
        <CharString name="Adieresis">
          -67 callsubr
          160 -28 callsubr
          23 1225 -1026 817 hintmask 00000000
          hintmask 11010010
          -98 callsubr
          hintmask 11100010
          -71 callgsubr
          hintmask 00000000
          49 1126 -28 callgsubr
          hintmask 00000101
          -53 callgsubr
          hintmask 00001001
          -77 callsubr
          hintmask 00000101
          -53 callsubr
          hintmask 00001001
          -30 callgsubr
        </CharString>
        <CharString name="Agrave">
          -46 callgsubr
          -1001 479 -92 callsubr
          -321 1126 -71 callsubr
          hintmask 00001010
          -43 callsubr
        </CharString>
        <CharString name="Aring">
          50 21 -21 392 193 1288 143 hstem
          337 3 callsubr
          vstem
          -92 callgsubr
          -442 1514 rlineto
          72 49 43 79 98 vvcurveto
          -54 callsubr
          -94 41 -78 67 -48 vhcurveto
          184 86 rmoveto
          -57 callsubr
          -200 -1021 rmoveto
          -71 callgsubr
          endchar
        </CharString>
        <CharString name="Atilde">
          -67 callsubr
          145 -23 callsubr
          23 1225 -1002 768 22 callsubr
          hintmask 1101000100000000
          -98 callsubr
          hintmask 1110000100000000
          -71 callgsubr
          22 callsubr
          -65 1111 -72 callsubr
          hintmask 0000100010000000
          -88 callsubr
          hintmask 0000011010000000
          -73 callgsubr
        </CharString>
        <CharString name="B">
          122 -7 199 -171 -21 731 171 475 200 5 callgsubr
          449 243 -157 243 hintmask 00000000
          hintmask 01111000
          207 hmoveto
          hintmask 10111010
          -7 133 126 0 114 hhcurveto
          462 189 168 284 197 -89 127 -195 65 hvcurveto
          hintmask 10111100
          131 80 67 107 168 vvcurveto
          223 -121 165 -457 -129 -87 0 -6 -144 vhcurveto
          246 -665 rmoveto
          467 vlineto
          3 43 40 1 35 hhcurveto
          252 -1 79 -86 -140 vvcurveto
          -137 -77 -111 -266 -32 -36 1 3 -38 vhcurveto
          -710 vmoveto
          527 vlineto
          1 -1 rlineto
          5 53 50 4 46 hhcurveto
          hintmask 10111010
          263 122 -98 -177 -153 -89 -111 -320 hvcurveto
          hintmask 10111100
          -39 -41 2 3 -45 hvcurveto
          endchar
        </CharString>
        <CharString name="C">
          -92 18 callgsubr
          1201 207 hstem
          116 249 vstem
          757 -22 rmoveto
          133 105 31 43 65 hvcurveto
          -61 callgsubr
          -555 262 -257 379 hvcurveto
          endchar
        </CharString>
        <CharString name="CR">
          endchar
        </CharString>
        <CharString name="Ccedilla">
          -92 -518 28 callsubr
          86 207 -171 -21 1393 207 hstemhm
          116 249 405 203 hintmask 00000000
          hintmask 11011110
          555 -238 rmoveto
          -74 callgsubr
          hintmask 11101110
          12 86 124 3 99 30 62 41 rlinecurve
          -61 callgsubr
          hvcurveto
          hintmask 11011110
          -479 195 -257 297 -61 vhcurveto
          endchar
        </CharString>
        <CharString name="D">
          24 callsubr
          1377 6 callsubr
          hintmask 01111000
          -11 callsubr
          102 84 -7 95 hhcurveto
          hintmask 10111000
          -23 callgsubr
          245 -1374 rmoveto
          1178 -33 callgsubr
        </CharString>
        <CharString name="DC1">
          endchar
        </CharString>
        <CharString name="DC2">
          endchar
        </CharString>
        <CharString name="DC3">
          endchar
        </CharString>
        <CharString name="DC4">
          endchar
        </CharString>
        <CharString name="DEL">
          endchar
        </CharString>
        <CharString name="DLE">
          endchar
        </CharString>
        <CharString name="E">
          -49 callsubr
          hstem
          214 245 vstem
          -91 callgsubr
          endchar
        </CharString>
        <CharString name="Eacute">
          -44 callsubr
          83 479 hintmask 11101000
          -85 callsubr
          328 16 callgsubr
          hintmask 00010100
          -69 callsubr
        </CharString>
        <CharString name="Ecircumflex">
          -44 callsubr
          -191 764 hintmask 11101000
          -85 callsubr
          257 140 -76 callgsubr
          hintmask 00010100
          -81 callgsubr
        </CharString>
        <CharString name="Edieresis">
          -49 callsubr
          140 300 -279 17 callgsubr
          -216 817 hintmask 11100100
          -85 callsubr
          688 140 -28 callgsubr
          hintmask 00001010
          -53 callgsubr
          hintmask 00010010
          -77 callsubr
          hintmask 00001010
          -53 callsubr
          hintmask 00010010
          -30 callgsubr
        </CharString>
        <CharString name="Egrave">
          -44 callsubr
          -191 479 hintmask 11101000
          -85 callsubr
          318 16 callgsubr
          hintmask 00010100
          -43 callsubr
        </CharString>
        <CharString name="Eth">
          24 callsubr
          693 202 482 6 callsubr
          hintmask 01111100
          -11 callsubr
          102 84 -7 95 hhcurveto
          hintmask 10111100
          -23 callgsubr
          -676 -140 -202 140 vlineto
          245 -496 rmoveto
          496 321 202 -321 480 -33 callgsubr
        </CharString>
        <CharString name="Euro">
          -98 -22 221 338 178 161 177 315 221 hstem
          160 236 vstem
          14 537 rmoveto
          164 hlineto
          -381 64 224 -178 311 hhcurveto
          103 111 28 30 71 hvcurveto
          -1 248 rlineto
          -57 -75 -118 -28 -80 hhcurveto
          -184 -134 101 237 -52 hvcurveto
          378 hlineto
          44 178 rlineto
          -444 hlineto
          -1 24 -1 25 27 vvcurveto
          30 1 28 1 27 vhcurveto
          485 hlineto
          44 177 rlineto
          -505 hlineto
          241 58 144 74 168 hhcurveto
          103 78 -27 -60 66 hvcurveto
          269 vlineto
          30 -81 -80 9 -72 hhcurveto
          -313 -231 -172 -364 -74 hvcurveto
          -172 -177 149 hlineto
          -2 -33 -1 -34 -35 vvcurveto
          -20 0 -20 1 -19 vhcurveto
          -147 hlineto
          endchar
        </CharString>
        <CharString name="F">
          -133 21 -21 712 199 462 198 -2 callgsubr
          245 712 432 199 -432 462 569 198 -814 hlineto
          endchar
        </CharString>
        <CharString name="G">
          113 18 callgsubr
          464 201 536 207 hstem
          116 250 573 245 vstem
          759 -22 rmoveto
          163 154 47 91 108 hvcurveto
          734 -507 -201 262 -440 vlineto
          -17 -48 -55 -7 -51 hhcurveto
          -259 -160 182 426 420 155 173 234 125 123 -50 -99 97 hvcurveto
          243 vlineto
          64 -69 -152 49 -157 hhcurveto
          -359 -247 -254 -544 -564 262 -253 381 hvcurveto
          endchar
        </CharString>
        <CharString name="H">
          230 21 -21 754 197 620 -20 hstem
          -8 callgsubr
          533 3 callgsubr
          754 533 -754 245 -45 callsubr
          -245 -620 -533 620 -245 hlineto
          endchar
        </CharString>
        <CharString name="HT">
          endchar
        </CharString>
        <CharString name="I">
          -581 -6 callgsubr
          197 245 vstem
          -66 callsubr
          endchar
        </CharString>
        <CharString name="IJ">
          153 -22 190 -147 -55 callgsubr
          hstemhm
          197 245 498 245 hintmask 01110000
          -66 callsubr
          hintmask 10101000
          511 -1593 -61 callsubr
          endchar
        </CharString>
        <CharString name="Iacute">
          -581 -36 callsubr
          197 245 -229 479 hintmask 11010000
          -55 callsubr
          16 140 -64 callsubr
        </CharString>
        <CharString name="Icircumflex">
          -581 -36 callsubr
          -62 764 -505 245 hintmask 11001000
          -55 callsubr
          -56 140 -76 callgsubr
          hintmask 00110000
          -81 callgsubr
        </CharString>
        <CharString name="Idieresis">
          -581 2 callgsubr
          -87 817 -533 245 hintmask 11000100
          -55 callsubr
          375 140 -62 callsubr
        </CharString>
        <CharString name="Igrave">
          -581 -36 callsubr
          -61 479 -221 245 hintmask 11001000
          -55 callsubr
          6 16 callgsubr
          hintmask 00110000
          -43 callsubr
        </CharString>
        <CharString name="Itilde">
          -581 -63 callgsubr
          145 -23 callsubr
          -63 768 -508 245 hintmask 11000010
          -55 callsubr
          261 125 -72 callsubr
          hintmask 00100100
          -88 callsubr
          hintmask 00011100
          -73 callgsubr
        </CharString>
        <CharString name="J">
          22 callgsubr
          hstem
          300 245 vstem
          68 -22 -61 callsubr
          endchar
        </CharString>
        <CharString name="Jcircumflex">
          22 callgsubr
          181 -21 hstemhm
          40 764 -504 245 hintmask 11001000
          68 -22 -61 callsubr
          hintmask 00000000
          175 1543 -76 callgsubr
          hintmask 00110000
          -81 callgsubr
        </CharString>
        <CharString name="K">
          -72 callgsubr
          endchar
        </CharString>
        <CharString name="Kcommaaccent">
          -72 callgsubr
          hintmask 00000000
          474 -1626 -96 callsubr
        </CharString>
        <CharString name="L">
          -26 callsubr
          1369 -245 hlineto
          endchar
        </CharString>
        <CharString name="LF">
          endchar
        </CharString>
        <CharString name="Ldot">
          -227 32 callgsubr
          508 303 558 -20 -27 callgsubr
          240 319 hintmask 01001000
          699 862 -10 callgsubr
          hintmask 10110000
          -485 -862 rmoveto
          726 202 -481 1369 -245 hlineto
          endchar
        </CharString>
        <CharString name="Lslash">
          -26 callsubr
          556 hlineto
          296 153 rlineto
          178 vlineto
          -296 -153 rlineto
          635 -245 -762 vlineto
          -189 -98 rlineto
          -177 vlineto
          189 97 rlineto
          endchar
        </CharString>
        <CharString name="M">
          555 -6 callgsubr
          -8 callgsubr
          858 3 callgsubr
          865 hlineto
          -37 400 rlineto
          11 hlineto
          399 -884 rlineto
          112 hlineto
          388 884 rlineto
          11 hlineto
          -26 -400 rlineto
          -865 245 -45 callsubr
          -325 vlineto
          -281 -658 -58 -163 rlineto
          -19 hlineto
          -59 163 -281 658 rlineto
          -325 hlineto
          endchar
        </CharString>
        <CharString name="N">
          271 -6 callgsubr
          -8 callgsubr
          573 245 vstem
          -90 callgsubr
          endchar
        </CharString>
        <CharString name="Nacute">
          271 -36 callsubr
          214 245 192 479 -98 245 hintmask 11010100
          -90 callgsubr
          hintmask 00000000
          437 140 -64 callsubr
        </CharString>
        <CharString name="Ntilde">
          271 -63 callgsubr
          145 -23 callsubr
          214 245 -84 768 -111 245 hintmask 11000101
          -90 callgsubr
          hintmask 00000000
          682 125 -64 callgsubr
        </CharString>
        <CharString name="O">
          -12 callsubr
          -106 callsubr
          endchar
        </CharString>
        <CharString name="OE">
          520 18 callgsubr
          -185 -48 callgsubr
          -181 203 hstemhm
          105 260 438 247 hintmask 00000000
          hintmask 10110110
          674 -22 rmoveto
          hintmask 01110110
          55 53 8 14 50 hvcurveto
          854 202 -636 540 451 197 -451 434 589 198 -808 hlineto
          hintmask 01101110
          14 -49 -53 8 -55 hhcurveto
          -330 -239 -249 -559 hvcurveto
          hintmask 10110110
          -555 239 -252 330 vhcurveto
          207 vmoveto
          -166 -143 171 429 hvcurveto
          hintmask 10101110
          431 143 174 166 45 44 -10 -26 40 vhcurveto
          -1135 vlineto
          hintmask 10110110
          -25 -40 -44 -9 -45 hhcurveto
          endchar
        </CharString>
        <CharString name="Oacute">
          -34 callgsubr
          214 479 -52 -99 callsubr
          -107 1526 -64 callsubr
        </CharString>
        <CharString name="Ocircumflex">
          -34 callgsubr
          -61 764 -62 -99 callsubr
          -179 1526 -76 callgsubr
          hintmask 00101000
          -81 callgsubr
        </CharString>
        <CharString name="Odieresis">
          -59 callsubr
          118 -28 callsubr
          105 248 -86 817 -90 249 hintmask 11001010
          -104 callgsubr
          252 1526 -62 callgsubr
        </CharString>
        <CharString name="Ograve">
          -34 callgsubr
          -61 479 223 -99 callsubr
          -118 1526 -3 callsubr
        </CharString>
        <CharString name="Oslash">
          -12 callsubr
          185 -171 rmoveto
          152 hlineto
          91 205 rlineto
          -37 73 83 -19 90 hhcurveto
          -52 callsubr
          306 -73 213 -120 130 hvcurveto
          116 261 rlineto
          -156 hlineto
          -75 -169 rlineto
          44 -77 -88 21 -96 hhcurveto
          -50 callsubr
          -320 78 -219 130 -129 hvcurveto
          111 252 rmoveto
          -44 96 -27 136 182 vvcurveto
          -51 callgsubr
          61 58 -23 -48 50 vhcurveto
          -323 -1078 rmoveto
          414 934 rlineto
          38 -95 22 -128 -167 vvcurveto
          -50 callgsubr
          -55 -53 17 39 -46 vhcurveto
          endchar
        </CharString>
        <CharString name="Otilde">
          -59 callsubr
          103 -23 callsubr
          105 248 -62 768 -65 249 hintmask 11000101
          -104 callgsubr
          138 1511 -64 callgsubr
        </CharString>
        <CharString name="P">
          16 21 -21 576 206 595 200 hstem
          207 246 483 248 vstem
          207 hmoveto
          246 580 hlineto
          -3 42 40 -1 37 hhcurveto
          439 173 219 295 287 -163 200 -33 callsubr
          hvcurveto
          246 -779 rmoveto
          581 vlineto
          3 36 35 1 32 hhcurveto
          284 1 96 -119 -177 vvcurveto
          -164 -82 -136 -263 -42 -46 3 7 -50 vhcurveto
          endchar
        </CharString>
        <CharString name="Q">
          126 -394 202 170 207 1205 203 30 callsubr
          211 205 225 249 hintmask 10001000
          564 -63 rmoveto
          -222 98 -109 196 61 44 8 12 52 vhcurveto
          198 vlineto
          -11 -35 -30 -5 -29 hhcurveto
          -121 -31 56 103 hvcurveto
          126 -205 vlineto
          hintmask 01110100
          110 -115 -107 callgsubr
          endchar
        </CharString>
        <CharString name="R">
          -38 callgsubr
          5 callgsubr
          490 17 callsubr
          hintmask 10111000
          -66 callgsubr
          hintmask 01111100
          -101 callgsubr
          endchar
        </CharString>
        <CharString name="RS">
          endchar
        </CharString>
        <CharString name="Racute">
          -18 callsubr
          72 479 -61 -93 callgsubr
          72 896 -71 callsubr
          hintmask 00001010
          -69 callsubr
        </CharString>
        <CharString name="Rcaron">
          -18 callsubr
          -202 764 -72 -93 callgsubr
          73 896 -8 callsubr
          hintmask 00001010
          -69 callgsubr
        </CharString>
        <CharString name="Rcommaaccent">
          -38 callgsubr
          5 callgsubr
          490 17 callsubr
          hintmask 10111000
          -66 callgsubr
          hintmask 01111100
          -101 callgsubr
          hintmask 00000000
          179 -870 -96 callsubr
        </CharString>
        <CharString name="S">
          14 callgsubr
          hstem
          131 241 335 240 vstem
          -85 callgsubr
          endchar
        </CharString>
        <CharString name="Scaron">
          14 callgsubr
          141 -21 hstemhm
          131 241 -215 764 -214 240 hintmask 11010100
          -85 callgsubr
          hintmask 00000000
          294 1417 -31 callgsubr
        </CharString>
        <CharString name="T">
          -100 21 -21 1369 202 hstem
          438 245 vstem
          438 hmoveto
          245 1369 371 202 -988 -202 372 hlineto
          endchar
        </CharString>
        <CharString name="Thorn">
          67 21 -21 279 205 590 205 292 -20 hstem
          214 248 492 249 6 callgsubr
          248 285 hlineto
          534 -47 207 229 321 vvcurveto
          287 -163 204 -444 vhcurveto
          -134 292 -248 hlineto
          248 -1076 rmoveto
          574 vlineto
          372 33 120 -125 -197 vvcurveto
          -191 -110 -147 -382 53 vhcurveto
          endchar
        </CharString>
        <CharString name="U">
          -32 callgsubr
          hstem
          206 248 539 247 vstem
          -100 callsubr
          endchar
        </CharString>
        <CharString name="US">
          endchar
        </CharString>
        <CharString name="Uacute">
          -35 callsubr
          161 479 -101 -93 callsubr
          409 140 -64 callsubr
        </CharString>
        <CharString name="Ucircumflex">
          -35 callsubr
          -113 764 -112 -93 callsubr
          338 140 -76 callgsubr
          hintmask 00101000
          -81 callgsubr
        </CharString>
        <CharString name="Udieresis">
          -32 callgsubr
          160 -28 callsubr
          206 248 -138 817 -140 247 hintmask 11001010
          -97 callgsubr
          769 140 -62 callgsubr
        </CharString>
        <CharString name="Ugrave">
          -35 callsubr
          -113 479 173 -93 callsubr
          399 140 -3 callsubr
        </CharString>
        <CharString name="V">
          -18 0 285 -264 -55 callgsubr
          hstemhm
          28 1146 26 callsubr
          459 hmoveto
          344 hlineto
          371 -45 callsubr
          31 callgsubr
          hintmask 10110000
          -267 -1286 rlineto
          -35 hlineto
          -325 1286 -1 callgsubr
          endchar
        </CharString>
        <CharString name="W">
          685 0 242 1329 -20 hstem
          41 1824 vstem
          361 hmoveto
          354 hlineto
          231 1113 rlineto
          14 hlineto
          229 -1113 rlineto
          353 hlineto
          323 -45 callsubr
          rlineto
          -266 hlineto
          -209 -1329 rlineto
          -33 hlineto
          -280 1329 rlineto
          13 callgsubr
          -280 -1329 rlineto
          -34 hlineto
          -211 1329 rlineto
          -271 hlineto
          endchar
        </CharString>
        <CharString name="X">
          23 22 -21 1570 -20 hstem
          25 1194 vstem
          25 1 rmoveto
          259 hlineto
          315 609 346 -609 rlineto
          274 hlineto
          -474 818 406 752 rlineto
          -261 hlineto
          -267 -544 -311 544 rlineto
          -273 hlineto
          435 -751 rlineto
          endchar
        </CharString>
        <CharString name="Y">
          -19 -6 callgsubr
          498 245 vstem
          -77 callgsubr
          endchar
        </CharString>
        <CharString name="Yacute">
          -19 -36 callsubr
          498 245 -226 479 hintmask 11010000
          -77 callgsubr
          hintmask 00000000
          19 1075 -64 callsubr
        </CharString>
        <CharString name="Ydieresis">
          -19 2 callgsubr
          218 817 -537 245 hintmask 11000100
          -77 callgsubr
          hintmask 00000000
          379 1075 -62 callsubr
        </CharString>
        <CharString name="Z">
          20 callgsubr
          hstem
          87 1011 vstem
          -22 callsubr
          endchar
        </CharString>
        <CharString name="Zcaron">
          20 callgsubr
          161 -21 hstemhm
          87 1011 -871 764 hintmask 11010000
          -22 callsubr
          hintmask 00000000
          -242 342 -31 callgsubr
        </CharString>
        <CharString name="a">
          -83 callgsubr
          hstemhm
          85 245 402 -46 callsubr
          hintmask 01111100
          -2 callsubr
          hintmask 10111100
          -84 callsubr
          hintmask 01111100
          -107 callsubr
          hintmask 10111100
          -99 callgsubr
          endchar
        </CharString>
        <CharString name="aacute">
          -83 callgsubr
          145 19 callgsubr
          85 245 88 549 -235 -103 callsubr
          88 962 -83 callsubr
        </CharString>
        <CharString name="acircumflex">
          -83 callgsubr
          183 32 callsubr
          85 245 -174 764 -188 -103 callsubr
          18 1000 -98 callgsubr
        </CharString>
        <CharString name="acute">
          26 callgsubr
          -61 549 vstem
          -61 1303 -83 callsubr
        </CharString>
        <CharString name="acute.cap">
          11 callgsubr
          -21 479 10 callsubr
          -21 1 callsubr
          -71 callsubr
          hintmask 10100000
          -69 callsubr
        </CharString>
        <CharString name="adieresis">
          -83 callgsubr
          225 305 hstemhm
          85 245 -188 792 -202 -103 callsubr
          442 1042 -102 callsubr
        </CharString>
        <CharString name="ae">
          527 -24 callsubr
          323 163 -129 163 285 187 -187 188 hstemhm
          85 240 407 233 448 231 hintmask 00000000
          hintmask 10110111
          -2 callsubr
          -177 133 -154 206 162 162 72 115 95 vhcurveto
          -121 88 139 -66 179 hhcurveto
          104 107 20 53 103 hvcurveto
          -52 callgsubr
          hintmask 11010111
          -156 -132 49 274 -33 hvcurveto
          640 -75 callgsubr
          -129 -121 -44 -92 -90 vhcurveto
          hintmask 11001111
          90 -71 -118 47 -162 hhcurveto
          -135 -115 -28 -52 -101 hvcurveto
          hintmask 10110111
          -199 vlineto
          52 113 97 39 95 hhcurveto
          179 70 -59 -176 hvcurveto
          -50 -148 vlineto
          -329 -170 -133 -244 hvcurveto
          hintmask 11010111
          880 343 rmoveto
          207 6 99 -13 callsubr
          151 72 -126 -193 -28 hvcurveto
          -1082 -310 rmoveto
          hintmask 10110111
          108 68 73 199 vhcurveto
          140 hlineto
          4 -78 12 -71 21 -63 rrcurveto
          -97 -66 -102 -48 -97 hhcurveto
          hintmask 11010111
          -127 -52 88 88 hvcurveto
          endchar
        </CharString>
        <CharString name="agrave">
          -83 callgsubr
          145 19 callgsubr
          78 549 -542 245 402 -46 callsubr
          hintmask 01110011
          -2 callsubr
          hintmask 10110011
          -84 callsubr
          hintmask 01110011
          -107 callsubr
          hintmask 10110011
          -99 callgsubr
          hintmask 00001100
          82 962 -68 callsubr
        </CharString>
        <CharString name="ampersand">
          377 -23 208 542 183 225 -20 274 205 hstemhm
          156 258 -178 258 516 245 hintmask 00000000
          hintmask 11111010
          156 435 rmoveto
          -234 161 -224 374 147 128 35 59 112 vhcurveto
          -64 54 82 -30 106 hhcurveto
          54 43 8 14 49 hvcurveto
          200 vlineto
          -10 -32 -30 -4 -25 hhcurveto
          -76 -48 44 100 hvcurveto
          398 157 183 -157 225 -245 -225 -130 vlineto
          hintmask 11110110
          -288 -98 144 136 131 91 68 132 91 79 -32 -67 73 hvcurveto
          244 vlineto
          33 -59 -90 27 -114 hhcurveto
          -293 -168 -175 -199 -114 54 -137 167 -109 hvcurveto
          hintmask 11111010
          -195 -85 -106 -148 -192 vvcurveto
          258 11 rmoveto
          170 125 111 216 vhcurveto
          255 -426 hlineto
          -15 0 -14 1 -13 vhcurveto
          -43 -78 -98 -31 -112 hhcurveto
          -211 -98 110 151 hvcurveto
          endchar
        </CharString>
        <CharString name="aring">
          -83 callgsubr
          112 142 267 143 hstemhm
          85 245 -84 3 callsubr
          -98 242 22 callsubr
          hintmask 0111001001000000
          -2 callsubr
          hintmask 1011001001000000
          -84 callsubr
          hintmask 0111001001000000
          -107 callsubr
          hintmask 1011001001000000
          -99 callgsubr
          hintmask 0000110110000000
          208 929 -94 callsubr
        </CharString>
        <CharString name="asciicircum">
          -194 1572 -20 hstem
          17 993 vstem
          17 437 rmoveto
          234 hlineto
          262 875 rlineto
          19 hlineto
          247 -875 rlineto
          231 hlineto
          -358 -39 callgsubr
          rlineto
          -258 hlineto
          endchar
        </CharString>
        <CharString name="asciitilde">
          95 655 -9 callsubr
          171 974 10 callsubr
          171 670 rmoveto
          128 hlineto
          76 35 64 22 66 hhcurveto
          hintmask 10100000
          147 44 -113 175 hhcurveto
          145 165 78 222 5 hvcurveto
          -128 hlineto
          -75 -35 -64 -23 -66 hhcurveto
          hintmask 01100000
          -147 -45 113 -174 hhcurveto
          -145 -165 -77 -223 -5 hvcurveto
          endchar
        </CharString>
        <CharString name="asterisk">
          97 838 984 hstem
          581 163 vstem
          570 838 rmoveto
          185 hlineto
          -21 370 308 -203 92 160 -323 164 324 163 -92 160 -310 -203 22 373 rlineto
          -185 hlineto
          22 -379 -317 209 -93 -160 326 -165 -323 -162 92 -160 315 206 rlineto
          endchar
        </CharString>
        <CharString name="at">
          1068 -458 170 293 193 -190 165 670 168 307 182 hstemhm
          191 194 275 250 994 195 hintmask 00000000
          hintmask 10111111
          191 420 rmoveto
          -513 327 -365 580 218 223 52 86 116 vhcurveto
          185 vlineto
          -85 -116 -195 -68 -226 hhcurveto
          -428 -305 245 465 527 392 369 496 334 297 -167 -421 -263 -117 -294 -163 -111 8 140 112 18 hvcurveto
          93 594 rlineto
          -175 hlineto
          -41 -64 rlineto
          30 -46 -68 26 -92 hhcurveto
          -286 -264 -252 -365 hvcurveto
          hintmask 11011111
          -258 131 -137 176 6 vhcurveto
          106 4 112 55 100 131 rrcurveto
          hintmask 10111111
          -99 18 95 -88 174 hhcurveto
          336 191 336 378 508 -342 270 -475 -628 -463 -471 -609 hvcurveto
          hintmask 11011111
          719 -13 rmoveto
          236 123 200 217 44 39 -9 -14 31 vhcurveto
          -66 -461 rlineto
          -106 -71 -96 -55 -84 hhcurveto
          -90 -47 63 146 hvcurveto
          endchar
        </CharString>
        <CharString name="atilde">
          -83 callgsubr
          236 -9 callsubr
          85 245 -168 768 -198 242 22 callsubr
          hintmask 0111001010000000
          -2 callsubr
          hintmask 1011001010000000
          -84 callsubr
          hintmask 0111001010000000
          -107 callsubr
          hintmask 1011001010000000
          -99 callgsubr
          22 callsubr
          353 1053 -88 callgsubr
          hintmask 0000100100000000
          -68 callgsubr
          hintmask 0000010100000000
          -73 callgsubr
        </CharString>
        <CharString name="b">
          -30 -67 callgsubr
          970 187 hstemhm
          141 23 callsubr
          hintmask 01111000
          141 hmoveto
          202 hlineto
          hintmask 10111000
          11 53 rlineto
          -49 61 82 -27 117 11 callsubr
          -191 195 -261 -123 -89 -43 -63 -63 hvcurveto
          4 174 rlineto
          486 -242 vlineto
          242 -1491 rmoveto
          672 vlineto
          51 57 71 27 76 hhcurveto
          162 104 -15 callgsubr
        </CharString>
        <CharString name="backslash">
          7 callgsubr
          456 1754 rmoveto
          -214 hlineto
          865 -2039 rlineto
          214 hlineto
          endchar
        </CharString>
        <CharString name="bar">
          -563 -426 2338 hstem
          228 202 vstem
          228 -426 rmoveto
          202 2338 -202 hlineto
          endchar
        </CharString>
        <CharString name="braceleft">
          9 callsubr
          182 182 12 243 15 callsubr
          376 132 rmoveto
          -216 95 -117 215 vhcurveto
          174 178 -125 hlineto
          -70 -46 37 92 hvcurveto
          406 vlineto
          180 -133 134 -122 6 vhcurveto
          hintmask 11110000
          29 vlineto
          hintmask 11010000
          122 6 133 134 181 vvcurveto
          406 vlineto
          92 46 37 70 vhcurveto
          125 178 -174 hlineto
          -215 -95 -117 -216 hvcurveto
          -414 vlineto
          -112 -90 -81 -104 -17 vhcurveto
          hintmask 11110000
          -178 vlineto
          hintmask 11010000
          104 -17 90 -85 -112 vvcurveto
          endchar
        </CharString>
        <CharString name="braceright">
          9 callsubr
          423 243 12 182 hintmask 00000000
          hintmask 11100000
          666 546 rmoveto
          hintmask 11110000
          112 90 85 104 17 vhcurveto
          178 vlineto
          -104 17 -90 81 112 vvcurveto
          414 vlineto
          216 -95 117 -215 vhcurveto
          -174 -178 125 hlineto
          70 46 -37 -92 hvcurveto
          hintmask 11100000
          -406 vlineto
          hintmask 11110000
          -181 133 -134 122 -6 vhcurveto
          -29 vlineto
          -122 -6 -133 -134 -180 vvcurveto
          -406 vlineto
          -92 -46 -37 -70 vhcurveto
          -125 -178 174 hlineto
          hintmask 11100000
          215 95 117 216 hvcurveto
          endchar
        </CharString>
        <CharString name="bracketleft">
          9 callgsubr
          228 243 vstem
          228 -221 rmoveto
          568 178 -325 1777 325 178 -568 hlineto
          endchar
        </CharString>
        <CharString name="bracketright">
          9 callgsubr
          473 243 vstem
          716 1912 rmoveto
          -568 -178 325 -1777 -325 -178 568 hlineto
          endchar
        </CharString>
        <CharString name="brokenbar">
          -564 -427 2338 hstem
          228 201 vstem
          228 1074 rmoveto
          201 837 -201 hlineto
          -1502 vmoveto
          -836 201 836 vlineto
          endchar
        </CharString>
        <CharString name="bullet">
          -368 626 464 hstem
          182 488 vstem
          424 626 rmoveto
          152 94 93 138 139 -94 94 -152 -146 -96 -94 -139 -138 96 -93 146 hvcurveto
          endchar
        </CharString>
        <CharString name="c">
          -261 -24 callsubr
          799 193 hstem
          85 251 vstem
          85 564 rmoveto
          -377 209 -210 308 109 87 26 57 93 vhcurveto
          -58 callsubr
          endchar
        </CharString>
        <CharString name="caron">
          7 callsubr
          -57 1341 -79 callsubr
        </CharString>
        <CharString name="caron.cap">
          -12 callgsubr
          -57 1 callsubr
          -8 callsubr
          hintmask 10100000
          -69 callgsubr
        </CharString>
        <CharString name="ccedilla">
          -261 -518 28 callsubr
          85 188 -146 -21 966 193 hstemhm
          85 251 269 203 hintmask 00000000
          hintmask 11011110
          444 -2 rmoveto
          -54 -236 rlineto
          -74 callgsubr
          hintmask 11101110
          12 85 105 2 85 25 91 56 rlinecurve
          -58 callsubr
          hintmask 11011110
          -308 140 -197 219 -61 vhcurveto
          endchar
        </CharString>
        <CharString name="cedilla">
          -1121 -519 28 callsubr
          hstem
          58 203 vstem
          73 40 rmoveto
          -166 hlineto
          -64 -279 rlineto
          -74 callgsubr
          endchar
        </CharString>
        <CharString name="cent">
          -193 2 -21 33 -21 1148 -20 32 -20 hstemhm
          97 245 137 213 -206 213 hintmask 00000000
          hintmask 01011100
          479 -7 rmoveto
          -313 213 vlineto
          hintmask 10011100
          301 vlineto
          78 10 68 25 73 44 rrcurveto
          203 vlineto
          -68 -77 -85 -30 -95 hhcurveto
          -201 -111 133 277 265 101 130 195 93 91 -31 -85 80 hvcurveto
          1 234 rlineto
          hintmask 01011010
          -61 34 -67 22 -76 9 rrcurveto
          280 -213 vlineto
          hintmask 01101010
          -292 vlineto
          -237 -55 -152 -199 -323 vvcurveto
          hintmask 01011100
          -317 148 -199 234 -55 vhcurveto
          endchar
        </CharString>
        <CharString name="circumflex">
          7 callsubr
          -140 1341 -98 callgsubr
        </CharString>
        <CharString name="circumflex.cap">
          -12 callgsubr
          -129 1 callsubr
          -76 callgsubr
          hintmask 10100000
          -81 callgsubr
        </CharString>
        <CharString name="colon">
          -488 2 -21 828 -21 hstemhm
          169 386 hintmask 10100000
          169 162 rmoveto
          -96 callgsubr
          hintmask 01100000
          807 vmoveto
          -96 callgsubr
          endchar
        </CharString>
        <CharString name="comma">
          -474 -1 -21 hstem
          368 216 vstem
          169 161 rmoveto
          -47 callgsubr
        </CharString>
        <CharString name="commaaccent">
          -1121 12 callsubr
          209 256 hstemhm
          50 186 hintmask 00000000
          hintmask 11100000
          53 -55 -96 callsubr
        </CharString>
        <CharString name="copyright">
          963 -39 153 261 189 535 187 246 153 hstem
          228 155 324 240 853 -82 callsubr
          324 9 rmoveto
          -293 174 -164 259 95 57 23 28 40 vhcurveto
          198 vlineto
          -40 -53 -63 -20 -54 hhcurveto
          -111 -104 69 204 194 93 68 107 66 65 -29 -45 50 hvcurveto
          210 vlineto
          28 -36 -80 23 -89 hhcurveto
          -243 -173 -161 -293 hvcurveto
          endchar
        </CharString>
        <CharString name="currency">
          579 233 205 740 205 hstem
          324 207 739 207 vstem
          182 235 rmoveto
          149 -145 237 248 rlineto
          -66 94 114 -39 125 hhcurveto
          124 115 39 67 94 hvcurveto
          238 -249 146 146 -249 237 rlineto
          68 94 40 116 124 vvcurveto
          124 -40 115 -67 95 vhcurveto
          248 238 -146 145 -238 -247 rlineto
          66 -94 -115 40 -124 hhcurveto
          -125 -115 -40 -67 -94 hvcurveto
          -239 249 -144 -147 247 -237 rlineto
          -68 -95 -39 -115 -124 vvcurveto
          -124 39 -116 68 -94 vhcurveto
          100 334 rmoveto
          203 167 168 203 203 166 -168 -203 -202 -166 -167 -203 -203 -167 167 202 vhcurveto
          endchar
        </CharString>
        <CharString name="d">
          1 -67 callgsubr
          970 187 hstemhm
          85 253 471 -46 callsubr
          hintmask 10111000
          538 -23 rmoveto
          131 93 48 72 64 hvcurveto
          hintmask 01111000
          4 -36 6 -34 8 -27 rrcurveto
          237 hlineto
          -15 92 -15 184 137 vvcurveto
          1298 -242 -486 vlineto
          3 -101 rlineto
          19 -53 -60 14 -75 hhcurveto
          -355 -184 -221 -379 hvcurveto
          hintmask 10111000
          24 callgsubr
          vhcurveto
          -16 callgsubr
          57 55 -11 -22 55 hvcurveto
          -696 vlineto
          -50 -57 -70 -26 -78 hhcurveto
          endchar
        </CharString>
        <CharString name="dagger">
          -610 1181 207 hstemhm
          207 196 -184 174 hintmask 00000000
          hintmask 10100000
          225 170 rmoveto
          162 hlineto
          12 1015 260 27 callsubr
          hintmask 11000000
          -258 -8 6 467 rlineto
          -202 hlineto
          5 -466 -257 7 rlineto
          -214 vlineto
          hintmask 10100000
          260 7 rlineto
          endchar
        </CharString>
        <CharString name="daggerdbl">
          -610 11 -21 462 206 523 206 hstemhm
          209 192 -180 168 hintmask 00000000
          hintmask 11110000
          205 -10 rmoveto
          202 hlineto
          -11 466 263 27 callsubr
          hintmask 11101000
          -268 -8 -4 195 6 335 266 27 callsubr
          hintmask 11110000
          -262 -8 10 467 rlineto
          -202 hlineto
          9 -467 -261 8 rlineto
          -214 vlineto
          hintmask 11101000
          265 7 7 -335 -5 -195 -267 8 rlineto
          -214 vlineto
          hintmask 11110000
          263 7 rlineto
          endchar
        </CharString>
        <CharString name="degree">
          -152 960 171 390 171 hstem
          182 215 276 214 vstem
          535 960 rmoveto
          205 147 148 218 218 -147 148 -205 -206 -147 -148 -218 -218 147 -148 206 hvcurveto
          171 vmoveto
          -77 -61 63 132 132 61 63 77 76 62 -63 -132 -132 -62 -63 -76 hvcurveto
          endchar
        </CharString>
        <CharString name="dieresis">
          -1121 1383 305 hstem
          -346 792 vstem
          284 1383 -102 callsubr
        </CharString>
        <CharString name="dieresis.cap">
          5 callsubr
          -28 callsubr
          -357 817 10 callsubr
          302 1 callsubr
          -28 callgsubr
          hintmask 10100000
          -53 callgsubr
          hintmask 01100000
          -77 callsubr
          hintmask 10100000
          -53 callsubr
          hintmask 01100000
          -30 callgsubr
        </CharString>
        <CharString name="divide">
          123 -20 callsubr
          934 vstem
          670 1062 19 callsubr
          -95 -63 -62 -90 -90 63 -62 95 hvcurveto
          -465 -416 rmoveto
          934 214 -934 hlineto
          307 -568 -10 callgsubr
          endchar
        </CharString>
        <CharString name="dollar">
          -151 1 -21 38 -21 1573 -20 38 -20 hstemhm
          137 245 44 214 -211 213 65 246 hintmask 00000000
          hintmask 10011011
          142 57 rmoveto
          73 -42 110 -27 104 -8 rrcurveto
          -322 213 vlineto
          hintmask 01011011
          339 vlineto
          194 50 117 149 200 441 -571 49 308 vvcurveto
          106 67 81 149 84 84 -26 -61 96 vhcurveto
          1 236 rlineto
          hintmask 01011101
          -59 29 -83 21 -81 8 rrcurveto
          324 -214 vlineto
          hintmask 01101101
          -342 vlineto
          -173 -51 -116 -139 -201 -446 570 -68 -292 vvcurveto
          -91 -56 -92 -182 -102 -108 29 80 -115 vhcurveto
          endchar
        </CharString>
        <CharString name="dotlessi">
          -13 callgsubr
          hstem
          182 240 vstem
          182 -22 callgsubr
          endchar
        </CharString>
        <CharString name="dotlessj">
          -615 8 callgsubr
          182 -224 -78 callsubr
          endchar
        </CharString>
        <CharString name="e">
          -107 -56 callsubr
          hstem
          85 250 441 234 vstem
          -105 callsubr
          endchar
        </CharString>
        <CharString name="eacute">
          -16 callsubr
          121 549 -229 -104 callsubr
          -314 652 -83 callsubr
        </CharString>
        <CharString name="ecircumflex">
          -107 -56 callsubr
          184 32 callsubr
          85 250 -141 764 -182 -104 callsubr
          -384 690 -98 callgsubr
        </CharString>
        <CharString name="edieresis">
          -107 -56 callsubr
          226 305 hstemhm
          85 250 -155 792 -196 -104 callsubr
          40 732 -102 callsubr
        </CharString>
        <CharString name="egrave">
          -16 callsubr
          -219 549 111 -104 callsubr
          -320 652 -68 callsubr
        </CharString>
        <CharString name="eight">
          63 -22 199 565 227 431 193 hstemhm
          85 16 callsubr
          378 16 callsubr
          hintmask 00000000
          hintmask 11110010
          85 447 rmoveto
          -241 169 -228 358 358 169 228 241 166 -81 162 -214 89 vhcurveto
          18 vlineto
          hintmask 11101100
          101 52 103 95 204 vvcurveto
          195 -150 165 -286 -286 -149 -165 -195 -204 102 -95 102 -52 vhcurveto
          -18 vlineto
          hintmask 11110010
          -215 -89 -81 -162 -166 vvcurveto
          hintmask 11101100
          526 522 rmoveto
          -109 -79 79 147 130 67 75 122 122 67 -75 -130 -147 -78 -79 -112 hvcurveto
          hintmask 11110010
          -279 -507 rmoveto
          179 107 101 173 173 108 -101 -179 -176 -102 -109 -179 -179 -101 109 176 vhcurveto
          endchar
        </CharString>
        <CharString name="ellipsis">
          978 -1 -21 hstem
          171 391 342 391 342 391 cntrmask 01110000
          1637 164 rmoveto
          -57 callgsubr
          -733 hmoveto
          -57 callgsubr
          -733 hmoveto
          -57 callgsubr
          endchar
        </CharString>
        <CharString name="emdash">
          693 -20 callsubr
          1504 -9 callgsubr
          1504 214 -1504 hlineto
          endchar
        </CharString>
        <CharString name="endash">
          271 -20 callsubr
          1082 -9 callgsubr
          1082 214 -1082 hlineto
          endchar
        </CharString>
        <CharString name="equal">
          123 423 213 236 213 hstem
          205 934 vstem
          205 872 rmoveto
          10 callgsubr
          -662 vmoveto
          10 callgsubr
          endchar
        </CharString>
        <CharString name="eth">
          -32 1560 -20 192 -21 hstem
          85 1019 vstem
          85 559 rmoveto
          -352 200 -230 303 289 227 210 490 350 -117 276 -222 184 vhcurveto
          95 73 rlineto
          177 vlineto
          -215 -165 -105 62 -122 47 -139 30 rlinecurve
          -189 vlineto
          73 -19 67 -25 62 -32 -104 -79 rcurveline
          -178 vlineto
          230 177 132 -104 89 -142 36 -175 rlinecurve
          107 -70 -117 63 -139 hhcurveto
          -253 -200 -206 -350 hvcurveto
          512 -395 rmoveto
          -155 -112 136 251 213 79 164 170 121 104 -83 -126 50 hvcurveto
          -341 49 -110 -214 -196 hhcurveto
          endchar
        </CharString>
        <CharString name="exclam">
          -488 2 -21 4 callsubr
          278 628 rmoveto
          171 hlineto
          54 1093 rlineto
          -278 hlineto
          -56 -1559 -82 callgsubr
        </CharString>
        <CharString name="exclamdown">
          -488 1367 21 4 callsubr
          225 -352 rmoveto
          278 hlineto
          -54 1093 rlineto
          -171 hlineto
          -109 466 -82 callgsubr
        </CharString>
        <CharString name="f">
          -527 -29 callgsubr
          hstem
          29 callgsubr
          vstem
          -103 callgsubr
          endchar
        </CharString>
        <CharString name="ff">
          167 0 callgsubr
          454 240 -94 callgsubr
          endchar
        </CharString>
        <CharString name="ffi">
          771 -19 callgsubr
          0 -20 422 186 hstemhm
          29 callgsubr
          454 -70 callgsubr
          hintmask 11010100
          694 -958 rmoveto
          -106 callgsubr
          hintmask 10100010
          -44 callgsubr
        </CharString>
        <CharString name="ffl">
          746 0 callgsubr
          454 240 422 239 -94 callgsubr
          hintmask 10000100
          1 callgsubr
        </CharString>
        <CharString name="fi">
          77 -19 callgsubr
          0 -20 422 186 hstemhm
          202 -70 callgsubr
          hintmask 10100100
          -44 callgsubr
        </CharString>
        <CharString name="five">
          18 -23 207 595 206 384 202 hstem
          192 239 448 246 vstem
          155 59 rmoveto
          -57 105 172 -25 109 hhcurveto
          363 221 220 298 301 -211 189 -255 -86 -60 -22 -32 -60 hvcurveto
          -22 438 579 202 -818 -906 hlineto
          81 121 119 33 111 hhcurveto
          216 120 -113 -185 -171 -110 -126 -237 -95 -136 21 98 -146 hvcurveto
          endchar
        </CharString>
        <CharString name="fl">
          52 0 callgsubr
          422 239 hintmask 11110000
          -103 callgsubr
          hintmask 10001000
          1 callgsubr
        </CharString>
        <CharString name="florin">
          -527 -11 186 -158 -21 962 177 402 186 hstemhm
          -78 775 -481 17 callsubr
          hintmask 10110100
          6 -11 rmoveto
          240 133 148 218 16 hvcurveto
          41 603 rlineto
          189 177 -177 hlineto
          18 251 rlineto
          96 6 54 55 89 hhcurveto
          27 31 -5 -10 24 hvcurveto
          194 vlineto
          4 -17 -37 3 -31 hhcurveto
          -240 -133 -148 -218 -15 hvcurveto
          -16 -222 rlineto
          -123 -177 111 hlineto
          -43 -632 rlineto
          -96 -7 -54 -55 -89 hhcurveto
          -26 -31 5 10 -24 hvcurveto
          hintmask 01111000
          -194 vlineto
          hintmask 10110100
          -4 17 37 -3 30 hhcurveto
          endchar
        </CharString>
        <CharString name="four">
          124 21 -21 348 211 1012 -20 hstem
          767 240 vstem
          83 348 rmoveto
          684 -348 240 348 254 211 -254 1012 -214 hlineto
          -710 -1012 rlineto
          -1 vlineto
          -1 -1 1 -1 rlineto
          258 3 rmoveto
          458 704 -32 -488 rlineto
          -216 vlineto
          endchar
        </CharString>
        <CharString name="g">
          -11 -520 176 306 182 -156 -21 407 177 426 180 -177 177 hstemhm
          108 235 -212 235 -180 228 390 234 -144 234 22 callsubr
          hintmask 1101011000100000
          108 -201 rmoveto
          -186 157 -133 346 343 174 146 204 284 -236 30 -250 vhcurveto
          hintmask 1101100011000000
          -107 -121 5 118 63 34 37 61 12 hvcurveto
          -3 27 29 -2 29 hhcurveto
          240 204 133 248 77 -19 68 -34 56 hvcurveto
          15 35 43 6 39 hhcurveto
          55 hlineto
          hintmask 1101010100100000
          180 -97 vlineto
          -75 -69 -25 -63 -37 hvcurveto
          57 -81 -106 31 -117 hhcurveto
          -239 -205 -138 -247 -161 81 -116 125 -64 hvcurveto
          hintmask 1101010010100000
          -97 -45 -55 -85 1 -86 1 -74 37 -73 61 -39 rrcurveto
          hintmask 1101011000100000
          -106 -42 -71 -69 -119 vvcurveto
          hintmask 1101010101000000
          475 752 rmoveto
          -135 -82 62 150 149 79 68 141 133 85 -66 -150 -149 -80 -64 -141 hvcurveto
          hintmask 1011011000100000
          -240 -722 rmoveto
          53 11 63 100 22 vhcurveto
          hintmask 1101010100100000
          -3 45 56 -2 41 hhcurveto
          156 142 -13 -128 -100 -89 -65 -180 hvcurveto
          hintmask 1011011000100000
          -207 -75 77 96 hvcurveto
          endchar
        </CharString>
        <CharString name="germandbls">
          67 -67 callgsubr
          958 177 389 187 hstemhm
          202 241 168 249 -68 247 -45 246 hintmask 00000000
          hintmask 01111010
          202 hmoveto
          241 1314 hlineto
          151 77 59 97 91 84 -52 -119 vhcurveto
          hintmask 10111101
          -175 -181 -137 -207 -300 383 -26 -209 vvcurveto
          -78 -51 -56 -124 -81 -87 24 62 -84 vhcurveto
          -2 -210 rlineto
          -43 78 80 -21 101 hhcurveto
          254 162 128 211 hvcurveto
          324 -380 42 190 vvcurveto
          hintmask 10111010
          130 179 136 213 vvcurveto
          209 -147 151 -271 -259 -160 -185 -294 vhcurveto
          -97 -121 -177 121 vlineto
          endchar
        </CharString>
        <CharString name="grave">
          26 callgsubr
          -388 549 vstem
          -54 1303 -68 callsubr
        </CharString>
        <CharString name="grave.cap">
          11 callgsubr
          -358 479 10 callsubr
          -94 1 callsubr
          -71 callsubr
          hintmask 10100000
          -43 callsubr
        </CharString>
        <CharString name="greater">
          -3 67 1188 hstem
          114 959 vstem
          404 1255 rmoveto
          -290 hlineto
          665 -594 -665 -594 rlineto
          290 hlineto
          669 594 rlineto
          endchar
        </CharString>
        <CharString name="guillemotleft">
          471 29 callsubr
          hstemhm
          145 651 56 651 hintmask 11000000
          529 181 -47 callsubr
          hintmask 10100000
          1091 -480 -47 callsubr
          endchar
        </CharString>
        <CharString name="guillemotright">
          471 29 callsubr
          hstemhm
          189 651 56 651 hintmask 11000000
          -27 callsubr
          1091 480 -36 callgsubr
          hintmask 10100000
          267 hlineto
          endchar
        </CharString>
        <CharString name="guilsinglleft">
          -236 29 callsubr
          hstem
          145 651 vstem
          529 181 -47 callsubr
          endchar
        </CharString>
        <CharString name="guilsinglright">
          -236 29 callsubr
          hstem
          189 651 vstem
          -27 callsubr
          endchar
        </CharString>
        <CharString name="h">
          32 -18 callgsubr
          -63 callsubr
          690 -242 vlineto
          endchar
        </CharString>
        <CharString name="hbar">
          32 -18 callgsubr
          165 178 -63 callsubr
          301 189 178 -189 211 -242 -211 -108 -178 108 vlineto
          endchar
        </CharString>
        <CharString name="hyphen">
          -26 callgsubr
        </CharString>
        <CharString name="i">
          -13 callgsubr
          hstem
          182 240 vstem
          302 1385 -89 callgsubr
          endchar
        </CharString>
        <CharString name="iacute">
          -13 callgsubr
          188 19 callgsubr
          181 549 -548 27 callgsubr
          182 -15 callsubr
          -1 168 -83 callsubr
        </CharString>
        <CharString name="icircumflex">
          -13 callgsubr
          226 32 callsubr
          -81 764 -501 27 callgsubr
          182 hmoveto
          240 1135 -240 hlineto
          -35 callgsubr
        </CharString>
        <CharString name="idieresis">
          -605 -40 callgsubr
          268 305 hstemhm
          -89 792 -515 27 callgsubr
          188 -15 callsubr
          353 248 -102 callsubr
        </CharString>
        <CharString name="igrave">
          -605 -40 callgsubr
          188 19 callgsubr
          -153 549 -208 27 callgsubr
          188 -15 callsubr
          -7 168 -68 callsubr
        </CharString>
        <CharString name="ij">
          -9 12 callsubr
          541 -32 callsubr
          hstemhm
          182 240 364 243 hintmask 01110000
          302 1385 -89 callgsubr
          hintmask 10101000
          724 250 -60 callsubr
        </CharString>
        <CharString name="itilde">
          -605 -40 callgsubr
          279 -9 callsubr
          -69 768 -511 240 hintmask 11000100
          188 -22 callgsubr
          hintmask 00000000
          264 259 -88 callgsubr
          hintmask 00101000
          -68 callgsubr
          hintmask 00011000
          -73 callgsubr
        </CharString>
        <CharString name="j">
          -613 8 callgsubr
          302 1385 -60 callsubr
        </CharString>
        <CharString name="jcircumflex">
          -615 12 callsubr
          1655 -20 226 32 callsubr
          -81 764 -501 243 hintmask 11001000
          182 -224 -78 callsubr
          -35 callgsubr
        </CharString>
        <CharString name="k">
          -87 -40 callgsubr
          hstem
          171 242 vstem
          -48 callsubr
          endchar
        </CharString>
        <CharString name="kcommaaccent">
          -87 -40 callgsubr
          -37 callgsubr
          vstemhm
          -48 callsubr
          420 -1766 -96 callsubr
        </CharString>
        <CharString name="kgreenlandic">
          -60 -40 callgsubr
          hstem
          171 2 callsubr
          297 hlineto
          134 174 325 -471 rlineto
          279 hlineto
          -459 659 366 476 rlineto
          -282 hlineto
          -363 -511 rlineto
          511 -242 vlineto
          endchar
        </CharString>
        <CharString name="l">
          -642 21 -21 hstem
          170 239 vstem
          170 hmoveto
          -24 callgsubr
        </CharString>
        <CharString name="ldot">
          -324 21 -21 621 304 hstemhm
          170 239 174 319 hintmask 01010000
          741 621 19 callsubr
          -96 -62 -62 -90 -90 62 -62 96 hvcurveto
          hintmask 10100000
          -571 -621 rmoveto
          -24 callgsubr
        </CharString>
        <CharString name="less">
          -3 67 1188 hstem
          145 959 vstem
          145 661 rmoveto
          669 -594 rlineto
          290 hlineto
          -665 594 665 594 rlineto
          -290 hlineto
          endchar
        </CharString>
        <CharString name="logicalnot">
          123 -4 callsubr
          926 213 -9 callgsubr
          721 -331 213 545 -934 hlineto
          endchar
        </CharString>
        <CharString name="lslash">
          -640 21 -21 hstem
          170 239 vstem
          170 hmoveto
          239 856 hlineto
          153 79 rlineto
          178 vlineto
          -153 -79 rlineto
          677 -239 -799 vlineto
          -147 -75 rlineto
          -178 vlineto
          147 75 rlineto
          endchar
        </CharString>
        <CharString name="m">
          732 25 callsubr
          -37 callgsubr
          443 242 443 242 cntrmask 00011100
          hintmask 00000000
          hintmask 11011100
          -84 callgsubr
          39 -3 36 -4 34 vhcurveto
          92 62 93 46 104 hhcurveto
          121 70 -25 callsubr
          -133 141 -234 -181 -114 -80 -111 -67 vhcurveto
          128 -57 -111 63 -155 hhcurveto
          -157 -107 -60 -89 -69 hvcurveto
          hintmask 10111100
          -6 callsubr
          endchar
        </CharString>
        <CharString name="macron">
          -1121 1456 13 callsubr
          1456 14 callsubr
        </CharString>
        <CharString name="macron.cap">
          -1121 1767 13 callsubr
          1767 14 callsubr
        </CharString>
        <CharString name="minus">
          -26 callgsubr
        </CharString>
        <CharString name="mu">
          -91 callsubr
        </CharString>
        <CharString name="multiply">
          25 332 835 hstem
          205 836 vstem
          356 332 rmoveto
          266 278 268 -278 151 150 -279 267 279 268 -151 150 -268 -279 -266 279 -151 -150 278 -268 -278 -267 rlineto
          endchar
        </CharString>
        <CharString name="n">
          20 callsubr
          -37 callgsubr
          443 -46 callsubr
          hintmask 11011000
          -87 callsubr
          hintmask 10111000
          -6 callsubr
          endchar
        </CharString>
        <CharString name="nacute">
          20 callsubr
          188 420 -37 callgsubr
          72 549 -178 -46 callsubr
          hintmask 11001010
          -87 callsubr
          hintmask 10101010
          -6 callsubr
          hintmask 00010100
          314 168 -83 callsubr
        </CharString>
        <CharString name="nbspace">
          -518 endchar
        </CharString>
        <CharString name="nine">
          73 -23 207 362 206 634 8 callsubr
          256 41 rmoveto
          -42 69 134 -22 100 hhcurveto
          340 287 254 591 531 -232 240 -324 -315 -195 -227 -313 -317 201 -190 251 158 116 74 126 82 hvcurveto
          11 hlineto
          -341 -149 -221 -251 -76 -113 20 70 -94 vhcurveto
          376 478 rmoveto
          -161 -105 121 201 203 107 109 152 150 155 -107 -353 hvcurveto
          -115 -78 -109 -59 -111 hhcurveto
          endchar
        </CharString>
        <CharString name="ntilde">
          20 callsubr
          279 -9 callsubr
          171 242 -184 768 -141 -46 callsubr
          hintmask 11000101
          -87 callsubr
          hintmask 10100101
          -6 callsubr
          hintmask 00000000
          579 259 -88 callgsubr
          hintmask 00010010
          -68 callgsubr
          hintmask 00001010
          -73 callgsubr
        </CharString>
        <CharString name="numbersign">
          688 21 -21 479 195 385 195 hstem
          160 1590 vstem
          361 hmoveto
          215 hlineto
          100 479 rlineto
          352 hlineto
          -100 -479 rlineto
          214 hlineto
          100 479 rlineto
          427 195 -387 hlineto
          81 385 rlineto
          387 195 -347 hlineto
          105 500 -60 callgsubr
          -105 -500 rlineto
          -352 hlineto
          105 500 rlineto
          -215 hlineto
          -105 -500 rlineto
          -376 hlineto
          -5 -195 rlineto
          341 hlineto
          -81 -385 rlineto
          -341 -195 301 hlineto
          255 195 rmoveto
          81 385 rlineto
          352 hlineto
          -81 -385 rlineto
          endchar
        </CharString>
        <CharString name="o">
          -7 callsubr
          -105 callgsubr
          endchar
        </CharString>
        <CharString name="oacute">
          -3 callgsubr
          134 549 -175 -102 callgsubr
          -120 1138 -83 callsubr
        </CharString>
        <CharString name="ocircumflex">
          -42 callgsubr
          184 379 30 callgsubr
          -128 764 -128 -102 callgsubr
          -190 1176 -98 callgsubr
        </CharString>
        <CharString name="odieresis">
          -42 callgsubr
          226 305 30 callgsubr
          -142 792 -142 -102 callgsubr
          234 1218 -102 callsubr
        </CharString>
        <CharString name="oe">
          645 -56 callsubr
          hstem
          93 235 517 211 474 232 vstem
          93 565 rmoveto
          -380 200 -208 293 157 130 68 129 83 vhcurveto
          -128 90 142 -69 180 hhcurveto
          104 107 20 53 102 hvcurveto
          -56 callgsubr
          -153 49 274 -37 hvcurveto
          666 hlineto
          22 61 9 68 69 vvcurveto
          313 -177 158 -247 -149 -142 -61 -130 -92 vhcurveto
          125 -83 -130 66 -156 hhcurveto
          -293 -200 -210 -382 hvcurveto
          963 86 rmoveto
          207 8 124 -13 callsubr
          152 71 -126 -193 -29 hvcurveto
          -938 -486 rmoveto
          -151 -107 118 282 283 107 122 151 144 115 -116 -283 -283 -115 -123 -144 hvcurveto
          endchar
        </CharString>
        <CharString name="ograve">
          -3 callgsubr
          -206 549 165 -102 callgsubr
          -126 1138 -68 callsubr
        </CharString>
        <CharString name="one">
          -325 -6 callgsubr
          394 240 vstem
          394 hmoveto
          240 -45 callsubr
          -179 hlineto
          -333 -167 rlineto
          -234 vlineto
          272 124 rlineto
          endchar
        </CharString>
        <CharString name="onehalf">
          905 -202 1956 -1754 205 528 1021 -914 205 hstemhm
          360 220 -122 1042 219 227 hintmask 10000100
          458 -31 callsubr
          hintmask 01010010
          64 -1754 -70 callsubr
          hintmask 00101000
          -1001 575 -45 callgsubr
        </CharString>
        <CharString name="onequarter">
          934 21 -21 220 179 334 1021 hstemhm
          360 220 1029 222 hintmask 11001000
          458 -31 callsubr
          -98 -1534 rmoveto
          410 -220 222 220 149 179 -149 622 -205 hlineto
          -427 -622 rlineto
          213 hmoveto
          197 298 rlineto
          -298 vlineto
          hintmask 00110000
          -1249 334 -45 callgsubr
        </CharString>
        <CharString name="onesuperior">
          -454 733 1021 hstem
          360 220 vstem
          360 733 -45 callgsubr
        </CharString>
        <CharString name="ordfeminine">
          -86 701 177 294 153 231 177 hstem
          165 221 323 235 vstem
          467 701 rmoveto
          105 82 41 68 58 hvcurveto
          2 -32 5 -31 9 -27 rrcurveto
          242 hlineto
          -27 81 1 61 85 vvcurveto
          410 vlineto
          245 -129 131 -268 -117 -96 -24 -45 -84 vhcurveto
          -187 vlineto
          46 94 78 33 97 hhcurveto
          139 51 -67 -126 hvcurveto
          -38 -105 vlineto
          -286 -153 -125 -197 -175 120 -127 182 hvcurveto
          65 177 rmoveto
          -105 -41 68 74 87 56 65 166 hvcurveto
          101 -222 hlineto
          -49 -51 -64 -23 -62 hhcurveto
          endchar
        </CharString>
        <CharString name="ordmasculine">
          -15 701 177 679 176 hstem
          165 221 434 221 vstem
          602 701 rmoveto
          259 180 185 334 334 -181 179 -256 -259 -180 -185 -334 -334 182 -179 255 hvcurveto
          177 vmoveto
          -121 -95 96 240 238 94 105 125 120 95 -97 -240 -238 -93 -104 -125 hvcurveto
          endchar
        </CharString>
        <CharString name="oslash">
          -7 callsubr
          196 -171 rmoveto
          141 hlineto
          78 177 rlineto
          -19 55 60 -10 65 hhcurveto
          -42 callsubr
          235 -81 169 -130 94 hvcurveto
          110 248 rlineto
          -144 hlineto
          -83 -188 rlineto
          18 -54 -58 10 -62 hhcurveto
          -41 callgsubr
          -234 78 -169 129 -95 hvcurveto
          95 217 rmoveto
          -35 64 -20 93 124 vvcurveto
          283 104 122 150 34 32 -6 -13 29 vhcurveto
          -195 -765 rmoveto
          296 670 rlineto
          37 -65 21 -93 -127 vvcurveto
          -283 -103 -123 -151 -37 -33 7 14 -30 vhcurveto
          endchar
        </CharString>
        <CharString name="otilde">
          -42 callgsubr
          237 -9 callsubr
          94 247 -122 768 -138 248 hintmask 11001010
          -105 callgsubr
          hintmask 00000000
          145 1229 -88 callgsubr
          hintmask 00100100
          -68 callgsubr
          hintmask 00010100
          -73 callgsubr
        </CharString>
        <CharString name="p">
          -41 -14 callsubr
          -22 -20 hstemhm
          141 242 459 252 hintmask 00000000
          hintmask 11101100
          379 37 rmoveto
          -38 59 74 -22 91 hhcurveto
          260 231 188 418 379 -190 195 -261 -127 -87 -45 -66 -61 hvcurveto
          hintmask 11011100
          -13 89 rlineto
          -214 -1655 242 379 hlineto
          352 vmoveto
          hintmask 11101100
          686 vlineto
          48 53 66 25 74 hhcurveto
          162 104 -21 callgsubr
          hvcurveto
          hintmask 11011100
          -66 -59 11 35 -52 hvcurveto
          endchar
        </CharString>
        <CharString name="paragraph">
          602 1359 213 -213 218 hstemhm
          813 243 239 245 hintmask 00000000
          hintmask 10110000
          815 -290 rmoveto
          242 1649 238 -1649 245 1649 205 213 -614 hlineto
          -122 -137 5 -63 hhcurveto
          hintmask 01110000
          -424 -166 -204 -284 -290 219 -235 374 19 hvcurveto
          endchar
        </CharString>
        <CharString name="parenleft">
          -90 -228 2086 hstem
          243 251 vstem
          243 815 rmoveto
          -588 330 -365 298 -90 vhcurveto
          214 vlineto
          -218 128 -159 280 421 vvcurveto
          421 159 280 218 128 vhcurveto
          214 vlineto
          -298 -90 -330 -365 -588 vvcurveto
          endchar
        </CharString>
        <CharString name="parenright">
          -90 -228 2086 hstem
          620 251 vstem
          871 815 rmoveto
          588 -330 365 -298 90 vhcurveto
          -214 vlineto
          218 -128 159 -280 -421 vvcurveto
          -421 -159 -280 -218 -128 vhcurveto
          -214 vlineto
          298 90 330 365 588 vvcurveto
          endchar
        </CharString>
        <CharString name="percent">
          1007 -39 callsubr
          22 callsubr
          hintmask 1001111110000000
          527 757 -37 callsubr
          hintmask 0101111110000000
          -49 callgsubr
          hintmask 1010111110000000
          -73 callsubr
        </CharString>
        <CharString name="period">
          -497 2 -21 4 callsubr
          169 162 -82 callgsubr
        </CharString>
        <CharString name="periodcentered">
          -488 695 -21 4 callsubr
          169 855 -82 callgsubr
        </CharString>
        <CharString name="perthousand">
          1883 -39 callsubr
          115 214 331 216 hintmask 1010000001100000
          2195 447 -95 callsubr
          22 callsubr
          -1882 312 -37 callsubr
          hintmask 1001111110000000
          -49 callgsubr
          hintmask 0101111110000000
          -73 callsubr
        </CharString>
        <CharString name="plus">
          123 646 214 25 callgsubr
          266 rmoveto
          213 380 362 214 -362 373 -213 -373 -359 -214 359 hlineto
          endchar
        </CharString>
        <CharString name="plusminus">
          123 0 213 536 213 25 callgsubr
          368 rmoveto
          213 381 362 213 -362 374 -213 -374 -359 -213 359 hlineto
          -359 -749 rmoveto
          10 callgsubr
          endchar
        </CharString>
        <CharString name="q">
          -40 -14 callsubr
          -19 -20 hstemhm
          85 253 460 -46 callsubr
          hintmask 11101100
          538 -23 rmoveto
          120 84 40 61 60 hvcurveto
          -4 -223 rlineto
          -375 242 vlineto
          hintmask 11011100
          1658 -219 vlineto
          hintmask 11101100
          -10 -38 rlineto
          23 -34 -72 34 -104 hhcurveto
          -326 -190 -221 -379 24 callgsubr
          hvcurveto
          -16 callgsubr
          55 50 -10 -21 51 hvcurveto
          -702 vlineto
          -48 -53 -65 -24 -76 hhcurveto
          endchar
        </CharString>
        <CharString name="question">
          -214 2 -21 1532 208 hstem
          329 214 128 242 vstem
          331 617 rmoveto
          213 230 hlineto
          243 115 126 153 199 vvcurveto
          220 -154 187 -314 -106 -117 -21 -48 -102 vhcurveto
          -233 vlineto
          55 75 115 39 108 hhcurveto
          170 83 -97 -120 -129 -94 -120 -249 -94 hvcurveto
          -73 -791 rmoveto
          -108 77 -73 115 118 77 73 108 108 -77 73 -118 -115 -77 -73 -108 vhcurveto
          endchar
        </CharString>
        <CharString name="questiondown">
          -214 -352 208 1511 21 hstem
          94 242 128 214 vstem
          676 752 rmoveto
          -213 -230 hlineto
          -243 -115 -126 -153 -199 vvcurveto
          -220 154 -187 314 106 117 21 48 102 vhcurveto
          233 vlineto
          -55 -75 -115 -39 -108 hhcurveto
          -170 -83 97 120 129 94 120 249 94 hvcurveto
          73 791 rmoveto
          108 -77 73 -115 -118 -77 -73 -108 -108 77 -73 118 115 77 73 108 vhcurveto
          endchar
        </CharString>
        <CharString name="quotedbl">
          -220 959 775 hstemhm
          175 226 232 226 hintmask 11000000
          186 959 -14 callgsubr
          hintmask 10100000
          479 -775 -14 callgsubr
          endchar
        </CharString>
        <CharString name="quotedblbase">
          117 -415 -1 callsubr
          -415 -86 callsubr
        </CharString>
        <CharString name="quotedblleft">
          117 966 762 hstemhm
          183 213 346 213 hintmask 11000000
          562 1728 -79 callgsubr
          hintmask 10100000
          559 151 -79 callgsubr
          endchar
        </CharString>
        <CharString name="quotedblright">
          117 944 -1 callsubr
          944 -86 callsubr
        </CharString>
        <CharString name="quoteleft">
          -442 966 762 hstem
          183 213 vstem
          562 1728 -79 callgsubr
          endchar
        </CharString>
        <CharString name="quoteright">
          -456 945 762 hstem
          383 213 vstem
          217 945 -97 callsubr
          endchar
        </CharString>
        <CharString name="quotesinglbase">
          -442 22 -21 hstem
          390 218 vstem
          182 188 rmoveto
          -112 79 -75 129 vhcurveto
          -113 -30 -97 -141 -41 vhcurveto
          -152 vlineto
          273 36 116 229 224 vvcurveto
          199 -93 87 -131 -122 -80 -75 -110 vhcurveto
          endchar
        </CharString>
        <CharString name="quotesingle">
          -644 959 775 hstem
          175 226 vstem
          186 959 -14 callgsubr
          endchar
        </CharString>
        <CharString name="r">
          -78 callgsubr
          endchar
        </CharString>
        <CharString name="rcaron">
          -20 callgsubr
          211 32 callsubr
          57 764 -650 -46 callsubr
          hintmask 10010010
          -38 callsubr
          hlineto
          hintmask 11000010
          -21 callsubr
          hintmask 10010010
          253 vlineto
          hintmask 11000010
          -30 callsubr
          hintmask 10100010
          -14 131 rlineto
          -213 hlineto
          hintmask 00001100
          161 206 -79 callsubr
        </CharString>
        <CharString name="rcommaaccent">
          -78 callgsubr
          hintmask 00000000
          163 -1190 -96 callsubr
        </CharString>
        <CharString name="registered">
          963 -39 153 1009 159 250 153 hstem
          228 155 417 216 192 225 367 -82 callsubr
          417 -401 rmoveto
          216 hlineto
          1 297 rlineto
          -1 17 17 -1 16 hhcurveto
          160 -294 rlineto
          234 hlineto
          -183 336 rlineto
          104 51 51 93 105 vvcurveto
          159 -112 115 -273 -90 -60 0 -3 -98 vhcurveto
          217 -400 rmoveto
          244 vlineto
          121 7 70 -38 -92 vvcurveto
          -80 -50 -56 -141 15 vhcurveto
          endchar
        </CharString>
        <CharString name="ring">
          -1121 1270 -7 callgsubr
          1270 -94 callsubr
        </CharString>
        <CharString name="ring.cap">
          -1121 1464 -7 callgsubr
          1464 -94 callsubr
        </CharString>
        <CharString name="s">
          21 callsubr
          hstem
          138 236 244 230 vstem
          -90 callsubr
          endchar
        </CharString>
        <CharString name="scaron">
          21 callsubr
          184 32 callsubr
          91 764 -717 236 244 230 hintmask 11001100
          -90 callsubr
          hintmask 00110000
          221 1094 -79 callsubr
        </CharString>
        <CharString name="section">
          74 -376 212 1843 211 hstemhm
          182 245 -182 239 325 157 -100 247 hintmask 00000000
          hintmask 11011000
          246 -56 rmoveto
          -1 -242 rlineto
          -50 87 140 -28 116 hhcurveto
          288 180 174 234 157 -83 101 -105 81 hvcurveto
          hintmask 11010100
          154 75 91 128 158 416 -629 44 305 vvcurveto
          99 68 83 149 vhcurveto
          hintmask 11011000
          83 85 -25 -61 95 hvcurveto
          2 236 rlineto
          37 -75 -109 24 -99 hhcurveto
          -256 -188 -159 -246 -164 84 -109 106 -87 hvcurveto
          hintmask 11101000
          -148 -70 -99 -124 -164 -412 627 -63 -279 vvcurveto
          -84 -55 -93 -183 vhcurveto
          hintmask 11011000
          -101 -109 28 80 -115 hvcurveto
          hintmask 11100100
          461 534 rmoveto
          -145 89 -135 83 153 vvcurveto
          96 53 83 93 40 vhcurveto
          150 -97 143 -85 -147 vvcurveto
          -82 -44 -79 -115 -54 vhcurveto
          endchar
        </CharString>
        <CharString name="semicolon">
          -454 -1 -21 831 -21 hstemhm
          169 386 -187 216 hintmask 01100000
          169 969 rmoveto
          -96 callgsubr
          hintmask 10010000
          -808 vmoveto
          -47 callgsubr
        </CharString>
        <CharString name="seven">
          -92 21 -21 1358 213 hstem
          62 1006 vstem
          235 hmoveto
          273 hlineto
          560 -45 callsubr
          rlineto
          -1006 -213 684 hlineto
          endchar
        </CharString>
        <CharString name="six">
          73 -23 207 633 207 362 8 callsubr
          675 -23 rmoveto
          316 195 227 312 317 -202 191 -251 -157 -117 -74 -126 -82 hvcurveto
          -11 hlineto
          341 149 221 251 76 113 -20 -70 94 vhcurveto
          233 vlineto
          42 -69 -134 22 -99 hhcurveto
          -341 -286 -255 -590 -531 231 -240 324 hvcurveto
          6 207 rmoveto
          -151 -155 107 353 hvcurveto
          115 79 108 58 112 hhcurveto
          160 105 -120 -201 -203 -107 -109 -151 hvcurveto
          endchar
        </CharString>
        <CharString name="slash">
          7 callgsubr
          242 -285 -8 callsubr
          865 2039 -60 callgsubr
          endchar
        </CharString>
        <CharString name="space">
          -610 endchar
        </CharString>
        <CharString name="sterling">
          71 32 callgsubr
          466 178 525 222 hstemhm
          207 247 -128 230 hintmask 00000000
          hintmask 11110000
          156 hmoveto
          640 hlineto
          197 63 35 56 63 hvcurveto
          248 vlineto
          -41 -29 -89 -96 -194 hhcurveto
          -392 hlineto
          hintmask 11101000
          101 117 40 150 109 vvcurveto
          30 -3 30 -3 30 vhcurveto
          280 178 hlineto
          hintmask 11110000
          -317 hlineto
          -28 106 -31 98 82 vvcurveto
          148 105 91 164 115 104 -45 -132 103 vhcurveto
          282 vlineto
          89 -107 -110 28 -116 hhcurveto
          -320 -185 -175 -280 -108 31 -93 30 -91 hvcurveto
          -122 -178 hlineto
          hintmask 11101000
          172 hlineto
          5 -30 3 -31 -32 vvcurveto
          -114 -39 -151 -131 -169 vhcurveto
          endchar
        </CharString>
        <CharString name="t">
          -454 -23 208 -187 -21 981 177 hstemhm
          219 240 26 callsubr
          219 301 rmoveto
          -222 115 -102 186 85 53 18 16 45 vhcurveto
          hintmask 10110000
          198 vlineto
          -11 -28 -35 -13 -57 hhcurveto
          -76 -48 27 100 hvcurveto
          646 210 177 -210 344 -209 vlineto
          -25 -344 rlineto
          -128 -177 122 hlineto
          endchar
        </CharString>
        <CharString name="thorn">
          -30 -14 callsubr
          hstemhm
          140 229 -228 23 callsubr
          hintmask 11101100
          140 hmoveto
          -520 vlineto
          hintmask 11110100
          240 hlineto
          -22 520 6 45 rlineto
          -44 60 79 -24 111 11 callsubr
          -194 195 -261 hvcurveto
          hintmask 11101100
          -120 -86 -41 -60 -62 hvcurveto
          655 -242 -1711 vlineto
          242 220 rmoveto
          674 vlineto
          50 56 70 26 75 hhcurveto
          162 107 -15 callgsubr
        </CharString>
        <CharString name="three">
          -33 18 callgsubr
          1204 205 hstemhm
          736 16 callsubr
          15 callsubr
          122 95 rmoveto
          -65 63 157 -52 172 hhcurveto
          297 263 153 310 187 -96 141 -273 91 hvcurveto
          hintmask 11100000
          216 102 62 132 127 vvcurveto
          197 -151 176 -297 -144 -150 -41 -53 -73 vhcurveto
          -244 vlineto
          90 106 133 43 105 hhcurveto
          136 88 -71 -121 -131 -106 -107 -261 -77 hvcurveto
          -177 vlineto
          hintmask 11010000
          305 19 154 -112 -174 vvcurveto
          -156 -123 -97 -187 -108 -141 32 111 -147 vhcurveto
          endchar
        </CharString>
        <CharString name="threequarters">
          1036 21 -21 220 179 308 0 callsubr
          890 222 hintmask 11000010
          561 -31 callsubr
          -98 -1534 rmoveto
          409 -220 222 220 150 179 -150 622 -205 hlineto
          -426 -622 rlineto
          213 hmoveto
          196 298 rlineto
          -298 vlineto
          hintmask 00000000
          -1524 375 -25 callgsubr
          hintmask 00110100
          -54 callgsubr
          hintmask 00111000
          -11 callgsubr
        </CharString>
        <CharString name="threesuperior">
          -213 707 0 callsubr
          15 callsubr
          187 774 -25 callgsubr
          hintmask 11100000
          -54 callgsubr
          hintmask 11010000
          -11 callgsubr
        </CharString>
        <CharString name="tilde">
          -1121 1394 -9 callsubr
          -326 768 hintmask 00000000
          hintmask 10100000
          195 1394 -88 callgsubr
          hintmask 01100000
          -68 callgsubr
          hintmask 10100000
          -73 callgsubr
        </CharString>
        <CharString name="tilde.cap">
          -1121 1696 -23 callsubr
          -334 768 hintmask 00000000
          hintmask 10010000
          187 1696 -72 callsubr
          hintmask 01110000
          -88 callsubr
          hintmask 10010000
          -73 callgsubr
        </CharString>
        <CharString name="trademark">
          597 1406 166 -166 167 hstemhm
          386 191 301 188 382 188 hintmask 00000000
          hintmask 01111000
          386 801 rmoveto
          191 605 204 167 -599 -167 204 hlineto
          492 -605 rmoveto
          188 323 hlineto
          -9 161 rlineto
          9 hlineto
          166 -300 rlineto
          50 hlineto
          166 300 rlineto
          9 hlineto
          -9 -161 rlineto
          -323 188 vlineto
          hintmask 10111000
          771 -187 vlineto
          -164 -300 -23 -68 rlineto
          -9 hlineto
          -24 68 -163 300 rlineto
          -188 hlineto
          endchar
        </CharString>
        <CharString name="two">
          -59 0 225 1146 222 hstem
          754 246 vstem
          119 hmoveto
          900 225 -570 hlineto
          443 461 108 235 210 vvcurveto
          276 -186 186 -298 -136 -120 -41 -87 -110 vhcurveto
          -271 vlineto
          127 102 136 50 102 hhcurveto
          152 112 -99 -179 -155 -83 -167 -552 -622 hvcurveto
          endchar
        </CharString>
        <CharString name="twosuperior">
          -252 732 205 635 205 hstem
          544 227 vstem
          186 732 -70 callsubr
          endchar
        </CharString>
        <CharString name="u">
          -43 callgsubr
          -37 callgsubr
          409 -46 callsubr
          hintmask 10111000
          -81 callsubr
          hintmask 01111000
          -59 callgsubr
          hintmask 10111000
          -74 callsubr
          endchar
        </CharString>
        <CharString name="uacute">
          -17 callsubr
          97 549 -237 -100 callgsubr
          339 168 -83 callsubr
        </CharString>
        <CharString name="ucircumflex">
          -43 callgsubr
          226 379 -37 callgsubr
          -165 764 -190 -100 callgsubr
          269 206 -98 callgsubr
        </CharString>
        <CharString name="udieresis">
          -43 callgsubr
          268 305 -37 callgsubr
          -179 792 -204 -100 callgsubr
          693 248 -102 callsubr
        </CharString>
        <CharString name="ugrave">
          -17 callsubr
          -242 549 102 -100 callgsubr
          334 168 -68 callsubr
        </CharString>
        <CharString name="underscore">
          123 -340 145 hstem
          -91 1527 vstem
          -91 -195 rmoveto
          -145 1527 145 vlineto
          endchar
        </CharString>
        <CharString name="uni0001">
          endchar
        </CharString>
        <CharString name="uni0002">
          endchar
        </CharString>
        <CharString name="uni0003">
          endchar
        </CharString>
        <CharString name="uni0004">
          endchar
        </CharString>
        <CharString name="uni0005">
          endchar
        </CharString>
        <CharString name="uni0006">
          endchar
        </CharString>
        <CharString name="uni0007">
          endchar
        </CharString>
        <CharString name="uni0008">
          endchar
        </CharString>
        <CharString name="uni0015">
          endchar
        </CharString>
        <CharString name="uni0016">
          endchar
        </CharString>
        <CharString name="uni0017">
          endchar
        </CharString>
        <CharString name="uni0018">
          endchar
        </CharString>
        <CharString name="uni0019">
          endchar
        </CharString>
        <CharString name="uni00AD">
          725 endchar
        </CharString>
        <CharString name="uni03BC">
          -91 callsubr
        </CharString>
        <CharString name="v">
          -194 0 242 -221 -32 callsubr
          hstemhm
          6 1015 26 callsubr
          394 hmoveto
          258 hlineto
          369 -39 callgsubr
          rlineto
          -245 hlineto
          hintmask 10110000
          -245 -893 rlineto
          -17 hlineto
          -261 893 rlineto
          -247 hlineto
          endchar
        </CharString>
        <CharString name="w">
          448 0 -39 callgsubr
          hstem
          10 1649 vstem
          624 hmoveto
          208 847 rlineto
          6 hlineto
          232 -847 rlineto
          291 hlineto
          298 -39 callgsubr
          rlineto
          -239 hlineto
          -195 -893 rlineto
          -17 hlineto
          -231 893 rlineto
          -265 hlineto
          -229 -893 rlineto
          -21 hlineto
          -198 893 rlineto
          -254 hlineto
          314 -1135 rlineto
          endchar
        </CharString>
        <CharString name="x">
          -159 21 -21 22 -21 1134 -20 hstemhm
          36 990 26 callsubr
          36 1 rmoveto
          249 hlineto
          233 406 rlineto
          hintmask 10110000
          245 -407 rlineto
          263 hlineto
          -365 585 330 550 rlineto
          -251 hlineto
          -209 -357 -214 357 rlineto
          -265 hlineto
          342 -533 rlineto
          endchar
        </CharString>
        <CharString name="y">
          -10 callsubr
          hstemhm
          -6 1049 hintmask 00000000
          hintmask 11100000
          -95 callgsubr
          endchar
        </CharString>
        <CharString name="yacute">
          -10 callsubr
          188 19 callgsubr
          -6 1049 -618 549 -75 callsubr
          214 1620 -83 callsubr
        </CharString>
        <CharString name="ydieresis">
          -10 callsubr
          268 305 hstemhm
          -6 1049 -894 792 -75 callsubr
          568 1700 -102 callsubr
        </CharString>
        <CharString name="yen">
          -7 21 -21 301 178 191 178 723 -20 hstem
          507 245 vstem
          139 301 rmoveto
          368 -301 245 301 365 178 -365 191 365 178 -270 hlineto
          335 723 31 callgsubr
          -288 -723 rlineto
          -14 hlineto
          -333 723 -1 callgsubr
          378 -723 rlineto
          -267 -178 368 -191 -368 hlineto
          endchar
        </CharString>
        <CharString name="z">
          21 callgsubr
          hstem
          82 857 vstem
          -17 callgsubr
          endchar
        </CharString>
        <CharString name="zcaron">
          21 callgsubr
          206 32 callsubr
          82 857 -811 764 hintmask 11010000
          -17 callgsubr
          hintmask 00101000
          -179 381 -79 callsubr
        </CharString>
        <CharString name="zero">
          120 -22 210 1191 210 hstem
          120 246 609 246 vstem
          659 -22 rmoveto
          325 237 258 565 562 -234 226 -305 -325 -237 -257 -566 -562 233 -226 306 hvcurveto
          12 210 rmoveto
          -174 -131 129 466 473 134 123 170 174 131 -128 -468 -473 -135 -122 -169 hvcurveto
          endchar
        </CharString>
      <CharString index="0">
        rmoveto
        -52 callsubr
        556 -240 250 -329 -50 callsubr
        -558 239 -251 330 hvcurveto
        207 vmoveto
        -171 -150 171 429 -51 callgsubr
        171 149 -174 -431 -50 callgsubr
        hvcurveto
        return
      </CharString>
      <CharString index="1">
        240 958 183 177 -183 251 hlineto
        96 50 55 89 24 24 -5 -10 22 vhcurveto
        194 vlineto
        4 -18 -37 3 -31 hhcurveto
        -240 -123 -148 -218 hvcurveto
        -222 -117 -177 117 vlineto
        return
      </CharString>
      <CharString index="2">
        94 565 rmoveto
        -380 208 -208 293 -42 callsubr
        381 -211 205 -291 -41 callgsubr
        vhcurveto
        501 -400 rmoveto
        -150 -104 118 282 283 104 122 150 151 103 -116 -283 -283 -103 -123 -151 hvcurveto
        return
      </CharString>
      <CharString index="3">
        -106 callsubr
        hintmask 00000000
        return
      </CharString>
      <CharString index="4">
        202 hmoveto
        -106 callgsubr
        return
      </CharString>
      <CharString index="5">
        248 hintmask 11010100
        -105 callgsubr
        hintmask 00101000
        return
      </CharString>
      <CharString index="6">
        309 -603 rlineto
        270 hlineto
        -340 649 rlineto
        212 77 98 164 210 vvcurveto
        274 -163 202 -33 callsubr
        vhcurveto
        246 -756 rmoveto
        558 vlineto
        3 41 37 1 36 hhcurveto
        274 -2 102 -119 -167 vvcurveto
        -158 -89 -126 -261 -42 -47 3 7 -51 vhcurveto
        return
      </CharString>
      <CharString index="7">
        -46 callsubr
        hintmask 10101010
        -81 callsubr
        hintmask 01101010
        -59 callgsubr
        hintmask 10101010
        -74 callsubr
        hintmask 00010100
        return
      </CharString>
      <CharString index="8">
        245 33 rmoveto
        108 67 73 200 vhcurveto
        135 -256 hlineto
        -68 -61 -81 -33 -81 hhcurveto
        -128 -51 88 88 hvcurveto
        return
      </CharString>
      <CharString index="9">
        rmoveto
        190 197 190 -197 rlineto
        192 31 callsubr
        379 -60 callgsubr
        -275 -379 rlineto
        endchar
      </CharString>
      <CharString index="10">
        -100 callsubr
        hintmask 00000000
        return
      </CharString>
      <CharString index="11">
        -108 76 -73 115 119 76 73 108 108 -76 73 -119 -115 -76 -73 -108 vhcurveto
        return
      </CharString>
      <CharString index="12">
        211 -317 rmoveto
        -203 vlineto
        193 155 53 388 120 hvcurveto
        364 1214 rlineto
        -252 hlineto
        -230 -893 rlineto
        -15 hlineto
        -292 893 -1 callgsubr
        394 -1102 rlineto
        89 hlineto
        -48 -166 -53 -164 -80 -16 -85 -4 rlinecurve
        return
      </CharString>
      <CharString index="13">
        hintmask 11110000
        -103 callgsubr
        hintmask 11101000
        694 -958 rmoveto
        -106 callgsubr
        return
      </CharString>
      <CharString index="14">
        17 callsubr
        hintmask 10110100
        -66 callgsubr
        hintmask 01110101
        -101 callgsubr
        hintmask 00000000
        return
      </CharString>
      <CharString index="15">
        23 hmoveto
        259 hlineto
        98 392 rlineto
        504 hlineto
        104 -392 rlineto
        260 hlineto
        return
      </CharString>
      <CharString index="16">
        -11 callsubr
        866 202 -621 540 443 197 -443 434 581 198 -826 hlineto
        return
      </CharString>
      <CharString index="17">
        12 callgsubr
        763 hlineto
        -26 366 rlineto
        12 hlineto
        57 -136 571 -993 rlineto
        204 -45 callsubr
        -245 -869 hlineto
        27 -309 rlineto
        -12 hlineto
        -68 182 -559 996 rlineto
        -206 hlineto
        return
      </CharString>
      <CharString index="18">
        -89 callsubr
        -1385 rmoveto
        -58 callgsubr
        return
      </CharString>
      <CharString index="19">
        -86 callgsubr
        -70 -20 -48 -28 -54 -65 callsubr
        return
      </CharString>
      <CharString index="20">
        rlineto
        -283 hlineto
        endchar
      </CharString>
      <CharString index="21">
        rmoveto
        115 100 80 220 32 hvcurveto
        -105 hlineto
        return
      </CharString>
      <CharString index="22">
        137 57 rmoveto
        -50 86 141 -29 117 hhcurveto
        286 180 170 248 hvcurveto
        444 -575 46 308 vvcurveto
        106 71 85 150 83 84 -25 -62 96 vhcurveto
        1 232 rlineto
        37 -74 -109 24 -101 hhcurveto
        -254 -188 -156 -256 hvcurveto
        -449 576 -65 -292 vvcurveto
        -91 -62 -96 -182 -102 -108 28 80 -115 vhcurveto
        return
      </CharString>
      <CharString index="23">
        -38 callsubr
        842 hlineto
        86 62 90 42 100 hhcurveto
        120 71 -65 callgsubr
        return
      </CharString>
      <CharString index="24">
        -84 -67 callgsubr
        522 163 285 188 return
      </CharString>
      <CharString index="25">
        rmoveto
        -96 callgsubr
        endchar
      </CharString>
      <CharString index="26">
        -275 4 callgsubr
        -275 -329 rlineto
        endchar
      </CharString>
      <CharString index="27">
        -116 -100 -80 -220 -32 hvcurveto
        105 hlineto
        return
      </CharString>
      <CharString index="28">
        rmoveto
        -266 -37 -113 -224 -219 vvcurveto
        -195 90 -87 129 119 78 76 107 109 -76 73 -127 vhcurveto
        111 30 94 136 41 vhcurveto
        return
      </CharString>
      <CharString index="29">
        -20 callgsubr
        hstemhm
        171 -46 callsubr
        hintmask 10011000
        -38 callsubr
        hlineto
        hintmask 11001000
        -21 callsubr
        hintmask 10011000
        253 vlineto
        hintmask 11001000
        -30 callsubr
        hintmask 10101000
        -14 131 rlineto
        -213 hlineto
        return
      </CharString>
      <CharString index="30">
        498 hmoveto
        245 634 hlineto
        437 937 31 callgsubr
        -288 -693 rlineto
        -28 hlineto
        -323 693 -1 callgsubr
        476 -935 rlineto
        return
      </CharString>
      <CharString index="31">
        rmoveto
        179 152 179 -152 rlineto
        203 hlineto
        return
      </CharString>
      <CharString index="32">
        hlineto
        23 61 9 68 69 vvcurveto
        313 -178 158 -246 return
      </CharString>
      <CharString index="33">
        16 38 43 9 42 hhcurveto
        67 25 -27 -43 -53 -67 -41 -156 -5 hvcurveto
        -136 vlineto
        295 131 106 136 107 -78 59 -132 2 hvcurveto
        return
      </CharString>
      <CharString index="34">
        114 43 -113 137 hhcurveto
        endchar
      </CharString>
      <CharString index="35">
        67 21 -21 22 -21 1570 -20 -27 callgsubr
        hintmask 00000000
        hintmask 10110000
        12 callgsubr
        420 hlineto
        175 279 rlineto
        hintmask 01110000
        356 -698 rlineto
        265 hlineto
        -477 903 426 667 rlineto
        -253 hlineto
        -492 -796 rlineto
        796 -245 vlineto
        return
      </CharString>
      <CharString index="36">
        182 724 rlineto
        29 hlineto
        192 -724 rlineto
        return
      </CharString>
      <CharString index="37">
        240 434 240 hintmask 11011000
        -103 callgsubr
        return
      </CharString>
      <CharString index="38">
        275 4 callgsubr
        -168 -151 -168 151 -60 callgsubr
        endchar
      </CharString>
      <CharString index="39">
        -80 callgsubr
        68 20 48 30 54 hhcurveto
        return
      </CharString>
      <CharString index="40">
        -24 callsubr
        -144 -21 return
      </CharString>
      <CharString index="41">
        207 hmoveto
        246 605 hlineto
        -2 36 35 -1 35 hhcurveto
        26 26 1 1 24 hvcurveto
        return
      </CharString>
      <CharString index="42">
        -83 -172 hvcurveto
        -715 242 723 vlineto
        return
      </CharString>
      <CharString index="43">
        -72 callsubr
        hintmask 00100010
        -88 callsubr
        hintmask 00011010
        -73 callgsubr
      </CharString>
      <CharString index="44">
        21 -55 callgsubr
        return
      </CharString>
      <CharString index="45">
        -28 callgsubr
        hintmask 00010100
        -53 callgsubr
        hintmask 00100100
        -77 callsubr
        hintmask 00010100
        -53 callsubr
        hintmask 00100100
        -30 callgsubr
      </CharString>
      <CharString index="46">
        224 vlineto
        -66 -76 -101 -25 -96 hhcurveto
        -261 -161 182 425 422 157 172 230 111 108 -35 -75 83 hvcurveto
        244 vlineto
        43 -60 -136 30 -133 hhcurveto
        -364 -245 -250 -553 return
      </CharString>
      <CharString index="47">
        rlineto
        -214 hlineto
        return
      </CharString>
      <CharString index="48">
        13 -120 rlineto
        215 -39 callgsubr
        -242 -849 hlineto
        return
      </CharString>
      <CharString index="49">
        240 -39 callgsubr
        13 callgsubr
        return
      </CharString>
      <CharString index="50">
        -110 76 -76 118 121 76 76 110 111 -76 75 -121 -118 -76 -75 -111 vhcurveto
        return
      </CharString>
      <CharString index="51">
        -52 callgsubr
        -156 return
      </CharString>
      <CharString index="52">
        -21 -45 callsubr
        -20 return
      </CharString>
      <CharString index="53">
        163 52 44 105 83 vvcurveto
        132 -108 115 -204 -99 -94 -27 -34 -47 vhcurveto
        -209 vlineto
        51 60 76 24 62 hhcurveto
        78 48 -34 -58 -57 -49 -55 -146 -36 hvcurveto
        -183 vlineto
        return
      </CharString>
      <CharString index="54">
        89 -61 62 -97 -95 -60 -62 -89 vhcurveto
        return
      </CharString>
      <CharString index="55">
        192 vlineto
        -47 -83 -82 -30 -105 hhcurveto
        return
      </CharString>
      <CharString index="56">
        431 150 174 171 return
      </CharString>
      <CharString index="57">
        -429 -149 -171 -171 return
      </CharString>
      <CharString index="58">
        128 -757 -71 callsubr
        718 1687 -60 callgsubr
        -847 -747 rmoveto
        -97 -69 73 210 210 69 74 97 97 68 -74 -210 -210 -68 -73 -97 hvcurveto
        return
      </CharString>
      <CharString index="59">
        202 540 197 434 198 return
      </CharString>
      <CharString index="60">
        -110 73 -73 126 vhcurveto
        -97 -35 -77 -139 -23 vhcurveto
        -165 vlineto
        269 21 121 200 225 vvcurveto
        197 -92 84 -128 -120 -75 -75 -107 vhcurveto
        endchar
      </CharString>
      <CharString index="61">
        -67 callsubr
        181 -21 -4 callgsubr
        return
      </CharString>
      <CharString index="62">
        rmoveto
        220 1021 -182 hlineto
        -211 -107 rlineto
        -213 vlineto
        173 80 rlineto
        endchar
      </CharString>
      <CharString index="63">
        794 427 -89 callgsubr
        endchar
      </CharString>
      <CharString index="64">
        12 -67 callgsubr
        -39 callgsubr
        -20 return
      </CharString>
      <CharString index="65">
        -31 -23 -40 callsubr
        return
      </CharString>
      <CharString index="66">
        -293 -208 -210 -382 return
      </CharString>
      <CharString index="67">
        21 -32 callsubr
        return
      </CharString>
      <CharString index="68">
        1135 return
      </CharString>
      <CharString index="69">
        60 21 -21 22 -21 601 203 572 200 return
      </CharString>
      <CharString index="70">
        hstemhm
        -34 callsubr
        return
      </CharString>
      <CharString index="71">
        rmoveto
        -384 480 rlineto
        -267 hlineto
        380 -480 -380 -480 rlineto
        return
      </CharString>
      <CharString index="72">
        hintmask 00110000
        -71 206 -98 callgsubr
      </CharString>
      <CharString index="73">
        -59 callsubr
        139 28 callgsubr
        return
      </CharString>
      <CharString index="74">
        vlineto
        1 21 18 1 31 hhcurveto
        376 121 -157 -419 -423 -123 -184 -365 -33 -21 1 2 -25 hvcurveto
        endchar
      </CharString>
      <CharString index="75">
        226 18 callgsubr
        1386 -20 return
      </CharString>
      <CharString index="76">
        -8 callsubr
        hintmask 00101000
        -69 callgsubr
      </CharString>
      <CharString index="77">
        -88 62 -61 93 vhcurveto
        endchar
      </CharString>
      <CharString index="78">
        -19 callgsubr
        402 186 return
      </CharString>
      <CharString index="79">
        rmoveto
        97 61 62 87 hvcurveto
        return
      </CharString>
      <CharString index="80">
        hstemhm
        -8 callgsubr
        return
      </CharString>
      <CharString index="81">
        -105 -20 callsubr
        706 -9 callgsubr
        706 214 -706 hlineto
        endchar
      </CharString>
      <CharString index="82">
        rmoveto
        -35 41 100 -32 112 hhcurveto
        198 183 101 202 130 -74 111 -191 39 hvcurveto
        return
      </CharString>
      <CharString index="83">
        239 1 callsubr
        -239 hlineto
        endchar
      </CharString>
      <CharString index="84">
        572 208 294 522 499 -189 269 -567 hvcurveto
        -84 -134 -6 -87 hhcurveto
        return
      </CharString>
      <CharString index="85">
        hmoveto
        -58 callgsubr
        return
      </CharString>
      <CharString index="86">
        -122 -278 -290 -119 -115 -163 return
      </CharString>
      <CharString index="87">
        -414 21 -21 922 235 -22 -20 35 -20 return
      </CharString>
      <CharString index="88">
        21 -5 callgsubr
        return
      </CharString>
      <CharString index="89">
        21 -5 callsubr
        return
      </CharString>
      <CharString index="90">
        82 hmoveto
        828 176 -465 hlineto
        494 959 rlineto
        -800 -175 443 hlineto
        return
      </CharString>
      <CharString index="91">
        66 188 rmoveto
        -156 -110 121 278 291 110 115 194 return
      </CharString>
      <CharString index="92">
        -21 callgsubr
        -68 -64 15 40 -56 hvcurveto
        endchar
      </CharString>
      <CharString index="93">
        rmoveto
        205 hlineto
        21 775 rlineto
        -247 hlineto
        return
      </CharString>
      <CharString index="94">
        -617 -40 callgsubr
        return
      </CharString>
      <CharString index="95">
        5 callsubr
        329 -308 -21 hstemhm
        -332 764 10 callsubr
        return
      </CharString>
      <CharString index="96">
        157 11 84 -59 -91 vvcurveto
        -69 -49 -49 -103 -66 -76 19 66 -100 vhcurveto
        endchar
      </CharString>
      <CharString index="97">
        rmoveto
        -90 63 -62 95 -51 callsubr
        -95 -63 -61 -90 vhcurveto
        return
      </CharString>
      <CharString index="98">
        vstem
        205 646 rmoveto
        return
      </CharString>
      <CharString index="99">
        214 245 return
      </CharString>
      <CharString index="100">
        142 267 143 hstem
        -242 3 callsubr
        vstem
        50 return
      </CharString>
      <CharString index="101">
        -63 callgsubr
        hstem
        return
      </CharString>
      <CharString index="102">
        -21 958 177 return
      </CharString>
      <CharString index="103">
        hstemhm
        23 1225 return
      </CharString>
      <CharString index="104">
        -42 callgsubr
        146 420 30 callgsubr
        return
      </CharString>
      <CharString index="105">
        hstem
        214 -19 callsubr
        return
      </CharString>
      <CharString index="106">
        rlineto
        -260 hlineto
        return
      </CharString>
      <CharString index="107">
        -29 callgsubr
        hstemhm
        29 callgsubr
        return
      </CharString>
      <CharString index="108">
        662 -958 rmoveto
        -24 callgsubr
      </CharString>
      <CharString index="109">
        -63 callgsubr
        160 -28 callsubr
        return
      </CharString>
      <CharString index="110">
        -19 callsubr
        245 return
      </CharString>
      <CharString index="111">
        329 -60 callgsubr
        return
      </CharString>
      <CharString index="112">
        hstemhm
        207 246 return
      </CharString>
      <CharString index="113">
        vstem
        -11 callsubr
        return
      </CharString>
      <CharString index="114">
        342 -285 2039 hstem
        242 1079 vstem
        return
      </CharString>
      <CharString index="115">
        12 callsubr
        1655 -20 hstem
        182 243 vstem
        return
      </CharString>
      <CharString index="116">
        -277 -221 178 1777 178 hstem
        return
      </CharString>
      <CharString index="117">
        934 213 -934 hlineto
        return
      </CharString>
      <CharString index="118">
        5 callsubr
        301 -280 -21 hstemhm
        return
      </CharString>
      <CharString index="119">
        -11 callsubr
        245 return
      </CharString>
      <CharString index="120">
        -240 hlineto
        return
      </CharString>
      <CharString index="121">
        -162 -22 208 1199 206 return
      </CharString>
      <CharString index="122">
        -71 callsubr
        hintmask 00101000
        return
      </CharString>
      <CharString index="123">
        140 -71 callsubr
        return
      </CharString>
      <CharString index="124">
        -21 -27 callgsubr
        return
      </CharString>
      <CharString index="125">
        -22 207 return
      </CharString>
      <CharString index="126">
        420 hstemhm
        return
      </CharString>
      <CharString index="127">
        -55 32 callgsubr
        1167 202 return
      </CharString>
      <CharString index="128">
        -200 0 176 784 175 return
      </CharString>
      <CharString index="129">
        -487 -22 190 1403 -20 return
      </CharString>
      <CharString index="130">
        105 248 return
      </CharString>
      <CharString index="131">
        -384 194 -196 259 return
      </CharString>
      <CharString index="132">
        hstem
        564 213 vstem
        564 return
      </CharString>
      <CharString index="133">
        -1121 1303 420 hstem
        return
      </CharString>
      <CharString index="134">
        240 hintmask 11001000
        return
      </CharString>
      <CharString index="135">
        -21 30 callsubr
        return
      </CharString>
      <CharString index="136">
        202 240 return
      </CharString>
      <CharString index="137">
        hstemhm
        94 247 return
      </CharString>
      <CharString index="138">
        rlineto
        -259 hlineto
        return
      </CharString>
      <CharString index="139">
        0 202 return
      </CharString>
</ttFont>
